<?xml version="1.0" encoding="UTF-8"?>
<!DOCTYPE svg PUBLIC "-//W3C//DTD SVG 1.1//EN" "http://www.w3.org/Graphics/SVG/1.1/DTD/svg11.dtd">
<!-- Creator: CorelDRAW -->
<svg xmlns="http://www.w3.org/2000/svg" xml:space="preserve" width="180mm" height="180mm" version="1.1" style="shape-rendering:geometricPrecision; text-rendering:geometricPrecision; image-rendering:optimizeQuality; fill-rule:evenodd; clip-rule:evenodd"
viewBox="0 0 18000 18000"
 xmlns:xlink="http://www.w3.org/1999/xlink"
 xmlns:xodm="http://www.corel.com/coreldraw/odm/2003">
 <defs>
  <style type="text/css">
   <![CDATA[
    .fil2 {fill:#2E2E2E}
    .fil1 {fill:#6C0100}
    .fil0 {fill:url(#id0)}
   ]]>
  </style>
  <linearGradient id="id0" gradientUnits="userSpaceOnUse" x1="-3510.69" y1="20140.98" x2="21543.05" y2="5298.92">
   <stop offset="0" style="stop-opacity:1; stop-color:#ED0E0C"/>
   <stop offset="0.215686" style="stop-opacity:1; stop-color:#EB1110"/>
   <stop offset="0.639216" style="stop-opacity:1; stop-color:#E81515"/>
   <stop offset="1" style="stop-opacity:1; stop-color:#690D0D"/>
  </linearGradient>
 </defs>
 <g id="Katman_x0020_1">
  <metadata id="CorelCorpID_0Corel-Layer"/>
  <g id="_3037726359616">
   <path class="fil0" d="M17154.75 2047.37l-16309.64 0 0 9161.93 16342.15 0 0 -9161.93 -32.51 0zm-13678.01 7667.41c-97.44,0 -162.37,-64.93 -162.37,-162.37 0,-97.53 64.93,-162.45 162.37,-162.45l4126.15 0c97.53,0 162.45,64.92 162.45,162.45 0,97.44 -64.92,162.37 -162.45,162.37l-4126.15 0zm0 -584.81c-97.44,0 -162.37,-64.93 -162.37,-162.36 0,-97.53 64.93,-162.46 162.37,-162.46l4126.15 0c97.53,0 162.45,64.93 162.45,162.46 0,97.43 -64.92,162.36 -162.45,162.36l-4126.15 0zm-1721.91 -487.27l974.74 0c97.43,0 162.36,64.92 162.36,162.45l0 974.65c0,97.43 -64.93,162.45 -162.36,162.45l-974.74 0c-97.44,0 -162.46,-65.02 -162.46,-162.45l0 -974.65c0,-97.53 97.53,-162.45 162.46,-162.45zm1721.91 -747.27c-97.44,0 -162.37,-65.02 -162.37,-162.46 0,-97.43 64.93,-162.45 162.37,-162.45l4126.15 0c97.53,0 162.45,65.02 162.45,162.45 0,97.44 -64.92,162.46 -162.45,162.46l-4126.15 0zm0 -584.8c-97.44,0 -162.37,-65.02 -162.37,-162.46 0,-97.44 64.93,-162.45 162.37,-162.45l4126.15 0c97.53,0 162.45,65.01 162.45,162.45 0,97.44 -64.92,162.46 -162.45,162.46l-4126.15 0zm-1721.91 -519.88l974.74 0c97.43,0 162.36,65.02 162.36,162.45l0 974.74c0,97.44 -64.93,162.46 -162.36,162.46l-974.74 0c-97.44,0 -162.46,-65.02 -162.46,-162.46l0 -974.74c0,-97.43 97.53,-162.45 162.46,-162.45zm1721.91 -747.17c-97.44,0 -162.37,-65.02 -162.37,-162.46 0,-97.53 64.93,-162.45 162.37,-162.45l4126.15 0c97.53,0 162.45,64.92 162.45,162.45 0,97.44 -64.92,162.46 -162.45,162.46l-4126.15 0zm0 -584.81c-97.44,0 -162.37,-65.02 -162.37,-162.46 0,-97.52 64.93,-162.45 162.37,-162.45l4126.15 0c97.53,0 162.45,64.93 162.45,162.45 0,97.44 -64.92,162.46 -162.45,162.46l-4126.15 0zm-1721.91 -487.37l974.74 0c97.43,0 162.36,64.93 162.36,162.46l0 974.64c0,97.44 -64.93,162.46 -162.36,162.46l-974.74 0c-97.44,0 -162.46,-65.02 -162.46,-162.46l0 -974.64c0,-97.53 97.53,-162.46 162.46,-162.46zm1721.91 -747.26c-97.44,0 -162.37,-65.02 -162.37,-162.46 0,-97.43 64.93,-162.45 162.37,-162.45l4126.15 0c97.53,0 162.45,65.02 162.45,162.45 0,97.44 -64.92,162.46 -162.45,162.46l-4126.15 0zm0 -584.8c-97.44,0 -162.37,-65.02 -162.37,-162.46 0,-97.44 64.93,-162.46 162.37,-162.46l4126.15 0c97.53,0 162.45,65.02 162.45,162.46 0,97.44 -64.92,162.46 -162.45,162.46l-4126.15 0zm-1721.91 -519.79l974.74 0c97.43,0 162.36,64.92 162.36,162.36l0 974.74c0,97.44 -64.93,162.46 -162.36,162.46l-974.74 0c-97.44,0 -162.46,-65.02 -162.46,-162.46l0 -974.74c0,-97.44 97.53,-162.36 162.46,-162.36zm11826.06 454.77c-97.43,0 -162.45,-64.93 -162.45,-162.37 0,-97.53 65.02,-162.46 162.45,-162.46l2729.16 0c97.44,0 162.46,64.93 162.46,162.46 0,97.44 -65.02,162.37 -162.46,162.37l-2729.16 0zm0 -584.81c-97.43,0 -162.45,-64.93 -162.45,-162.36 0,-97.54 65.02,-162.46 162.45,-162.46l2729.16 0c97.44,0 162.46,64.92 162.46,162.46 0,97.43 -65.02,162.36 -162.46,162.36l-2729.16 0zm-682.24 2339.22l454.86 1786.93c32.51,65.02 -32.51,162.46 -97.43,194.97l-1754.42 584.8c-65.02,32.51 -162.46,-32.5 -194.97,-97.44l-32.51 -130.03c-129.95,-519.79 -32.51,-1072.08 227.48,-1526.94 259.89,-422.35 682.24,-779.78 1234.54,-909.73 65.02,-32.5 162.45,32.52 162.45,97.44zm-1169.61 2794.09l1981.8 -552.3 -519.78 -1981.8c-32.52,-65.02 32.5,-162.46 97.43,-194.97 617.32,-162.46 1267.14,-65.02 1786.93,227.39 519.88,292.4 942.23,812.28 1104.69,1429.59 162.36,617.23 64.92,1267.05 -227.48,1786.84 -292.4,519.88 -812.19,942.23 -1429.51,1104.68 -649.82,162.46 -1267.04,64.93 -1786.92,-227.47 -519.79,-292.4 -942.14,-812.19 -1104.59,-1429.51 -32.52,-64.92 0,-129.94 97.43,-162.45z"/>
   <path class="fil1" d="M17317.21 11501.7l0 0 -16634.46 0 0 0 -65.02 0c-97.44,0 -194.97,32.52 -259.89,97.54 -65.02,64.92 -97.54,162.36 -97.54,259.89 0,97.43 32.52,194.87 97.54,259.89 64.92,65.02 162.45,97.44 259.89,97.44l6465.37 0 0 0 1267.05 0 0 0 0 0 1267.05 0 0 0 0 0 0 0 1267.14 0 0 0 0 0 6432.87 0c97.43,0 194.87,-32.42 259.89,-97.44 65.02,-65.02 97.44,-162.46 97.44,-259.89 0,-97.53 -32.42,-194.97 -97.44,-259.89l0 0c-65.02,-65.02 -162.46,-97.54 -259.89,-97.54l0 0z"/>
   <path class="fil1" d="M682.75 1722.46l16634.46 0 0 0 64.92 0c97.53,0 194.97,-32.51 259.99,-97.44 64.92,-65.02 97.44,-162.45 97.44,-259.89 0,-97.53 -32.52,-194.97 -97.44,-259.99l0 0c-65.02,-64.92 -162.46,-97.43 -259.99,-97.43l-16764.4 0c-97.44,0 -194.97,32.51 -259.89,97.43 -65.02,65.02 -97.54,162.46 -97.54,259.99 0,97.44 32.52,194.87 97.54,259.89 64.92,64.93 162.45,97.44 259.89,97.44l65.02 0 0 0z"/>
   <path class="fil2" d="M6530.81 14880.59l1981.8 0 0 -2371.73 974.64 0 0 2371.73 2014.41 0 -1559.55 -2371.73 909.72 0 2924.03 4483.58 -909.72 0 -1202.12 -1819.44c-32.41,0 -32.41,0 -64.93,0l-2111.84 0 0 1819.44 -974.64 0 0 -1819.44 -2176.77 0 -1169.61 1819.44 -909.72 0 2956.54 -4483.58 909.72 0 -1591.96 2371.73z"/>
  </g>
 </g>
</svg>
