<?xml version="1.0" encoding="UTF-8"?>
<!DOCTYPE svg PUBLIC "-//W3C//DTD SVG 1.1//EN" "http://www.w3.org/Graphics/SVG/1.1/DTD/svg11.dtd">
<!-- Creator: CorelDRAW -->
<svg xmlns="http://www.w3.org/2000/svg" xml:space="preserve" width="180mm" height="180mm" version="1.1" style="shape-rendering:geometricPrecision; text-rendering:geometricPrecision; image-rendering:optimizeQuality; fill-rule:evenodd; clip-rule:evenodd"
viewBox="0 0 18000 18000"
 xmlns:xlink="http://www.w3.org/1999/xlink"
 xmlns:xodm="http://www.corel.com/coreldraw/odm/2003">
 <defs>
  <style type="text/css">
   <![CDATA[
    .fil0 {fill:#6C0100}
    .fil2 {fill:#FEFEFE;fill-rule:nonzero}
    .fil3 {fill:#595554;fill-rule:nonzero}
    .fil1 {fill:url(#id0)}
   ]]>
  </style>
  <linearGradient id="id0" gradientUnits="userSpaceOnUse" x1="-7927.88" y1="25243.1" x2="25927.09" y2="-14325.86">
   <stop offset="0" style="stop-opacity:1; stop-color:#ED0E0C"/>
   <stop offset="0.14902" style="stop-opacity:1; stop-color:#EB1110"/>
   <stop offset="0.439216" style="stop-opacity:1; stop-color:#E81515"/>
   <stop offset="1" style="stop-opacity:1; stop-color:#690D0D"/>
  </linearGradient>
 </defs>
 <g id="Katman_x0020_1">
  <metadata id="CorelCorpID_0Corel-Layer"/>
  <g id="_3037711593648">
   <path class="fil0" d="M13496.1 6079.51l-316.16 0 0 -1474.3c0,-66.01 -53.28,-119.21 -119.3,-119.21 -65.42,0 -118.95,53.2 -118.95,119.21l0 1474.3 -316.16 0 -237.92 1270.27 1346.4 0 -237.91 -1270.27z"/>
   <path class="fil0" d="M16370.92 6079.51l-316.15 0 0 -1474.3c0,-66.01 -53.2,-119.21 -119.3,-119.21 -65.42,0 -118.96,53.2 -118.96,119.21l0 1474.3 -316.16 0 -237.91 1270.27 1346.4 0 -237.92 -1270.27z"/>
   <path class="fil1" d="M8837.81 13059.72c-131.43,0 -237.91,106.14 -237.91,237.33l0 264.73c-72.59,-65.43 -118.96,-159.18 -118.96,-264.73 0,-196.86 159.76,-356.63 356.87,-356.63 197.2,0 356.97,159.77 356.97,356.63 0,105.55 -46.46,199.3 -118.96,264.73l0 -264.73c0,-131.19 -106.48,-237.33 -238.01,-237.33zm-3045.8 -597.83c-1423.79,0 -2578.06,-1154.01 -2578.06,-2577.47 0,-1127.54 724.8,-2083.09 1732.79,-2433.47l0 -244.5c0,-262.62 213.21,-476.17 475.83,-476.17l738.8 0c262.36,0 475.83,213.55 475.83,476.17l0 244.5c1007.99,350.38 1732.54,1305.93 1732.54,2433.47 0,1423.46 -1154.35,2577.47 -2577.73,2577.47zm2412.06 297.1c-100.58,84.48 -250.48,71.07 -334.87,-29.42 -84.23,-100.5 -71.41,-250.4 29.42,-335.21 100.5,-84.14 250.73,-70.74 334.87,29.76 84.48,100.5 71.41,250.4 -29.42,334.87zm-1128.72 651.37c-123.43,45.52 -259.67,-18.47 -304.6,-142.15 -44.86,-123.17 18.46,-259.67 142.22,-304.6 123.09,-44.6 259.59,18.8 304.53,142.48 44.93,123.17 -18.72,259.67 -142.15,304.27zm-1283.34 226.62c-131.52,0 -237.66,-106.48 -237.66,-237.92 0,-131.18 106.14,-237.92 237.66,-237.92 131.1,0 237.58,106.74 237.58,237.92 0,131.44 -106.48,237.92 -237.58,237.92zm-978.82 -368.18c-45.27,123.43 -181.17,186.49 -305.19,141.56 -123.09,-44.6 -186.74,-181.69 -141.55,-304.86 44.93,-123.09 181.68,-187.08 304.52,-141.89 123.42,44.93 186.49,182.02 142.22,305.19zm-1098.7 -539.23c-84.73,100.49 -234.04,113.31 -335.21,29.17 -100.24,-84.22 -112.97,-234.38 -28.5,-334.62 84.14,-100.5 234.3,-113.9 334.54,-29.76 100.83,84.81 113.06,234.71 29.17,335.21zm-761.13 -4484.19c-65.09,114.16 -210.52,152.26 -324.42,87.09 -113.99,-66.01 -152.35,-211.1 -86.59,-325.34 65.43,-113.65 210.86,-152.26 324.51,-86.25 113.31,65.43 153.18,210.86 86.5,324.5zm-86.84 3602.33c-113.9,65.42 -258.74,26.21 -324.76,-87.77 -65.76,-113.56 -26.47,-258.99 87.43,-323.83 113.31,-65.76 259.33,-27.06 324.5,86.84 66.02,113.56 26.14,258.74 -87.17,324.76zm-770.33 -1312.85c-23.18,-128.74 63.66,-251.92 193.07,-274.17 128.74,-22.93 252.76,63.06 274.84,192.39 23.19,129.66 -63.65,252.25 -192.72,275.43 -129.42,22.94 -252.25,-63.31 -275.19,-193.65zm275.44 -1495.12c128.82,22.59 215.91,145.76 192.47,275.43 -22.34,129.41 -145.76,214.73 -275.18,192.73 -129.66,-23.19 -215.32,-146.02 -192.39,-276.03 22.26,-129.32 145.69,-215.32 275.1,-192.13zm1313.44 -1666.69c-100.25,85.06 -249.89,71.66 -334.96,-28.92 -83.8,-101.09 -70.73,-250.06 30.1,-335.13 100.24,-84.47 250.14,-70.81 334.62,30.02 84.14,99.9 71.66,250.14 -29.76,334.03zm985.64 -568.66c-122.83,45.44 -259.33,-19.06 -304.6,-142.23 -44.26,-123.43 18.8,-258.99 142.82,-304.86 123.09,-44.85 259.58,18.8 304.26,142.82 44.86,122.5 -18.46,259.59 -142.48,304.27zm1358.88 -435.2c0,130.93 -105.89,237.66 -237.58,237.07 -131.18,0.59 -237.66,-106.14 -238,-237.32 0.59,-131.44 106.48,-237.08 238.59,-237.67 131.1,0 237.58,106.23 236.99,237.92zm1187.91 293.56c-44.94,122.58 -180.85,187.08 -304.53,140.96 -123.42,-44 -186.82,-181.09 -142.48,-304.18 45.53,-123.17 181.43,-186.49 305.7,-141.89 123.18,44.94 186.49,181.43 141.31,305.11zm1015.74 682.05c-83.89,99.91 -233.79,113.31 -334.62,28.25 -100.58,-83.89 -113.31,-234.13 -29.42,-334.62 84.73,-99.91 234.29,-113.65 335.46,-28.84 100.5,84.14 113.31,234.04 28.58,335.21zm-5761.12 -5234.61l6639.7 0 0 2947.42 -6639.7 0 0 -2947.42zm7015.88 7122.27c22.93,129.42 -63.65,252.51 -193.32,275.44 -128.74,22.59 -252.16,-63.32 -275.1,-192.73 -22.93,-129.67 63.66,-252.84 192.73,-276.02 129.41,-22.01 252.5,63.99 275.69,193.31zm321.21 3707.96c197.2,0 356.96,159.77 356.96,356.63 0,105.89 -46.45,199.3 -119.04,264.73l0 -264.73c0,-131.19 -106.48,-237.33 -237.92,-237.33 -131.43,0 -237.91,106.14 -237.91,237.33l0 264.73c-72.59,-65.43 -118.96,-158.84 -118.96,-264.73 0,-196.86 159.68,-356.63 356.87,-356.63zm-1091.79 -5020.13c113.9,-64.83 259,-26.81 325.1,87.68 65.42,113.4 26.13,259.08 -87.77,324.5 -113.06,65.43 -258.49,27.07 -324.5,-87.09 -65.76,-113.64 -26.14,-259.07 87.17,-325.09zm-87.17 3602.66c65.42,-113.9 211.19,-152.6 324.75,-87.17 113.65,65.76 152.6,211.19 86.92,324.75 -65.5,113.99 -210.93,152.6 -324.83,87.18 -113.57,-65.43 -152.6,-211.2 -86.84,-324.76zm582.06 -794.44c-129.07,-22.59 -215.66,-145.77 -192.73,-275.43 22.6,-129.33 146.36,-215.32 275.44,-192.98 129.07,23.44 215.57,146.61 192.73,276.02 -22.94,129.33 -146.03,215.33 -275.44,192.39zm7516.42 -3106.25l-1586.43 0c-131.44,0 -237.67,106.48 -237.67,237.67 0,132.02 106.23,238.17 237.67,238.17l129.33 0 228.72 5972.22 195.09 0c-24.61,1804.45 -1498.32,3266.02 -3308.5,3266.02 -1690.21,0 -3086.27,-1274.49 -3284.65,-2911.75l496.66 0 16.1 -1.52c183.2,836.93 929.08,1465.36 1819.88,1465.36 1012.46,0 1837.16,-811.64 1861.52,-1818.11l199.65 0 228.64 -5972.22 129.41 0c131.44,0 237.92,-106.15 237.92,-238.17 0,-131.19 -106.48,-237.67 -237.92,-237.67l-1586.76 0c-131.44,0 -237.58,106.48 -237.58,237.67 0,132.02 106.14,238.17 237.58,238.17l129.41 0 228.73 5972.22 195.09 0c-24.11,744.19 -635.6,1342.61 -1385.69,1342.61 -673.37,0 -1235.79,-482.41 -1361.33,-1120.12 283.79,-164.48 477.1,-468.16 477.1,-820.32l0 -12332.52c0,-525.57 -426.17,-951.75 -951.75,-951.75l-7613.96 0c-525.83,0 -951.75,426.18 -951.75,951.75l0 12332.52c0,525.83 425.92,952.1 951.75,952.1l6636.66 0c200.15,1900.81 1812.2,3387.33 3765.29,3387.33 2072.46,0 3759.72,-1674.78 3784.42,-3741.6l199.56 0 228.98 -5972.22 128.83 0c131.43,0 237.91,-106.15 237.91,-238.17 0,-131.19 -106.48,-237.67 -237.91,-237.67z"/>
   <polygon class="fil0" points="5741.43,4605.21 5979.68,4605.21 5979.68,4366.95 5741.43,4366.95 "/>
   <path class="fil0" d="M5488.59 2717.8l-0.26 -34.23 -26.47 -31.53 -45.86 -50.25c-27.32,-28.24 -46.37,-44.34 -46.37,-44.34 0,0 -15.77,-17.79 -44.01,-45.19l-50.59 -45.53 -30.94 -25.8 -34.73 -2.44c-96.11,0 -224.6,0 -352.75,0 -128.48,0 -256.72,0 -353.08,0l-34.48 0.59 -31.2 26.47 -50.58 45.53c-27.99,27.65 -44.01,46.37 -44.01,46.37 0,0 -18.21,16.1 -44.94,44.34l-45.52 50.25 -26.48 31.53 -2.02 34.23c0,96.03 0,224.85 0,353 0,127.9 0,256.72 0,352.75l0.25 34.22 26.48 31.54 46.11 50.58c27.32,28.24 46.12,44.01 46.12,44.01 0,0 18.72,-15.77 46.37,-44.01l45.78 -50.58 26.22 -31.54 0.59 -34.22c0,-96.03 0,-224.85 0,-352.75 0,-128.15 0,-256.97 0,-353l-2.11 -34.23 -26.47 -31.53 -31.79 -35.41 36 32.71 31.2 26.81 34.48 0.34c96.36,0 224.6,0 353.08,0 128.15,0 256.64,0 352.75,0l34.73 -2.11 30.94 -26.22 34.82 -31.53 -32.12 35.41 -26.47 31.53 -0.34 34.23c0,96.03 0,224.85 0,353 0,127.9 0,256.72 0,352.75l1.86 34.22 26.47 31.54 45.78 50.58c26.72,28.24 44.6,44.01 44.6,44.01 0,0 18.12,-15.77 45.19,-44.01l45.52 -50.58 26.48 -31.54 1.77 -34.22c0,-96.03 0,-224.85 0,-352.75 0,-128.15 0,-256.97 0,-353z"/>
   <path class="fil0" d="M7154.43 3678.75l-26.47 31.27 -0.25 34.15c0,96.7 0,224.85 0,353.33 0,127.9 0,256.72 0,352.5l2.02 34.73 26.22 30.94 31.78 35.41 -35.99 -32.37 -30.86 -26.81 -34.82 -0.25c-96.11,0 -224.26,0 -352.75,0 -128.48,0 -256.71,0 -353.08,0l-34.48 2.02 -30.94 26.22 -34.74 31.19 32.12 -35.41 26.48 -30.94 0.25 -34.73c0,-95.78 0,-224.6 0,-352.5 0,-128.48 0,-256.63 0,-353.33l-2.11 -34.15 -26.13 -31.27 -45.78 -50.59c-26.81,-27.9 -44.94,-44.26 -44.94,-44.26 0,0 -17.87,16.36 -44.94,44.26l-45.44 50.59 -26.47 31.27 -2.11 34.15c0,96.7 0,224.85 0,353.33 0,127.9 0,256.72 0,352.5l0.59 34.73 26.14 30.94 46.11 50.59c27.4,28.58 46.12,44.01 46.12,44.01 0,0 16.02,18.46 44.35,45.52l50.5 45.19 30.94 26.48 34.48 2.1c96.37,0 224.6,0 353.08,0 128.49,0 256.64,0 352.75,0l34.82 -0.59 30.86 -26.22 50.58 -45.78c28.24,-27.4 44.01,-46.7 44.01,-46.7 0,0 18.21,-15.43 45.27,-44.01l45.44 -50.59 26.48 -30.94 2.11 -34.73c0,-95.78 0,-224.6 0,-352.5 0,-128.48 0,-256.63 0,-353.33l-0.6 -34.15 -26.22 -31.27 -46.03 -50.59c-27.4,-27.9 -46.45,-44.26 -46.45,-44.26 0,0 -18.38,16.36 -46.03,44.26l-45.87 50.59z"/>
   <path class="fil0" d="M5277.73 3678.75l-26.47 31.27 -0.34 34.15c0,96.7 0,224.85 0,353.33 0,127.9 0,256.72 0,352.5l1.86 34.73 26.47 30.94 31.78 35.41 -36 -32.37 -30.94 -26.81 -34.73 -0.25c-96.11,0 -224.6,0 -352.75,0 -128.48,0 -256.72,0 -353.08,0l-34.48 2.02 -31.2 26.22 -34.56 31.19 32.12 -35.41 26.22 -30.94 0.59 -34.73c0,-95.78 0,-224.6 0,-352.5 0,-128.48 0,-256.63 0,-353.33l-2.11 -34.15 -26.47 -31.27 -45.53 -50.59c-27.06,-27.9 -44.85,-44.26 -44.85,-44.26 0,0 -18.21,16.36 -44.94,44.26l-45.52 50.59 -26.48 31.27 -2.02 34.15c0,96.7 0,224.85 0,353.33 0,127.9 0,256.72 0,352.5l0.25 34.73 26.48 30.94 46.11 50.59c27.32,28.58 46.12,44.01 46.12,44.01 0,0 16.02,18.46 44.01,45.52l50.58 45.19 31.2 26.48 34.48 2.1c96.36,0 224.6,0 353.08,0 128.15,0 256.64,0 352.75,0l34.73 -0.59 30.94 -26.22 50.59 -45.78c28.24,-27.4 44.01,-46.7 44.01,-46.7 0,0 18.12,-15.43 45.19,-44.01l45.52 -50.59 26.48 -30.94 1.77 -34.73c0,-95.78 0,-224.6 0,-352.5 0,-128.48 0,-256.63 0,-353.33l-0.26 -34.15 -26.47 -31.27 -45.86 -50.59c-27.32,-27.9 -46.37,-44.26 -46.37,-44.26 0,0 -18.72,16.36 -46.12,44.26l-45.78 50.59z"/>
   <path class="fil0" d="M7365.63 2717.8l-0.6 -34.23 -26.22 -31.53 -46.03 -50.25c-27.4,-28.24 -46.45,-44.34 -46.45,-44.34 0,0 -15.77,-17.79 -44.01,-45.19l-50.58 -45.53 -30.86 -25.8 -34.82 -2.44c-96.11,0 -224.26,0 -352.75,0 -128.48,0 -256.71,0 -353.08,0l-34.48 0.59 -30.94 26.47 -50.5 45.53c-28.33,27.65 -44.35,46.37 -44.35,46.37 0,0 -17.87,16.1 -44.94,44.34l-45.44 50.25 -26.47 31.53 -2.11 34.23c0,96.03 0,224.85 0,353 0,127.9 0,256.72 0,352.75l0.59 34.22 26.14 31.54 46.11 50.58c27.4,28.24 46.12,44.01 46.12,44.01 0,0 18.72,-15.77 46.37,-44.01l45.86 -50.58 26.48 -31.54 0.25 -34.22c0,-96.03 0,-224.85 0,-352.75 0,-128.15 0,-256.97 0,-353l-2.11 -34.23 -26.13 -31.53 -31.87 -35.41 36 32.71 30.94 26.81 34.48 0.34c96.37,0 224.6,0 353.08,0 128.49,0 256.64,0 352.75,0l34.82 -2.11 30.86 -26.22 34.81 -31.53 -32.12 35.41 -26.47 31.53 -0.25 34.23c0,96.03 0,224.85 0,353 0,127.9 0,256.72 0,352.75l2.02 34.22 26.22 31.54 45.78 50.58c26.81,28.24 44.6,44.01 44.6,44.01 0,0 18.21,-15.77 45.27,-44.01l45.44 -50.58 26.48 -31.54 2.11 -34.22c0,-96.03 0,-224.85 0,-352.75 0,-128.15 0,-256.97 0,-353z"/>
   <path class="fil0" d="M6161.37 6968.2l-250.4 0 0 1248.86 -238.25 0 0 -1248.86 -250.15 0c-131.43,0 -237.91,106.48 -237.91,238.25l0 2864.46c0,131.18 106.48,237.92 237.91,237.92l738.8 0c131.18,0 237.91,-106.74 237.91,-237.92l0 -2864.46c0,-131.77 -106.73,-238.25 -237.91,-238.25z"/>
   <path class="fil0" d="M8572.24 3678.75l-26.47 31.27 -0.59 34.15c0,96.7 0,224.85 0,353.33 0,127.9 0,256.72 0,352.5l2.11 34.73 26.47 30.94 31.79 35.41 -36 -32.37 -31.2 -26.81 -34.48 -0.25c-96.36,0 -224.6,0 -352.75,0 -128.48,0 -256.97,0 -353.08,0l-34.48 2.02 -31.19 26.22 -34.49 31.19 31.79 -35.41 26.47 -30.94 0.25 -34.73c0,-95.78 0,-224.6 0,-352.5 0,-128.48 0,-256.63 0,-353.33l-1.77 -34.15 -26.47 -31.27 -45.44 -50.59c-27.06,-27.9 -45.28,-44.26 -45.28,-44.26 0,0 -17.78,16.36 -44.59,44.26l-45.78 50.59 -26.48 31.27 -1.77 34.15c0,96.7 0,224.85 0,353.33 0,127.9 0,256.72 0,352.5l0.26 34.73 26.47 30.94 45.86 50.59c27.32,28.58 46.03,44.01 46.03,44.01 0,0 16.36,18.46 44.35,45.52l50.59 45.19 31.19 26.48 34.48 2.1c96.11,0 224.6,0 353.08,0 128.15,0 256.39,0 352.75,0l34.48 -0.59 31.2 -26.22 50.58 -45.78c27.99,-27.4 44.01,-46.7 44.01,-46.7 0,0 18.13,-15.43 44.94,-44.01l45.52 -50.59 26.48 -30.94 2.02 -34.73c0,-95.78 0,-224.6 0,-352.5 0,-128.48 0,-256.63 0,-353.33l-0.25 -34.15 -26.48 -31.27 -46.11 -50.59c-27.07,-27.9 -46.12,-44.26 -46.12,-44.26 0,0 -18.72,16.36 -46.12,44.26l-45.78 50.59z"/>
   <path class="fil0" d="M8783.1 2717.8l-0.25 -34.23 -26.48 -31.53 -46.11 -50.25c-27.07,-28.24 -46.12,-44.34 -46.12,-44.34 0,0 -16.02,-17.79 -44.01,-45.19l-50.58 -45.53 -31.2 -25.8 -34.48 -2.44c-96.36,0 -224.6,0 -352.75,0 -128.48,0 -256.97,0 -353.08,0l-34.48 0.59 -31.19 26.47 -50.59 45.53c-27.99,27.65 -44.35,46.37 -44.35,46.37 0,0 -17.78,16.1 -44.59,44.34l-45.78 50.25 -26.48 31.53 -1.77 34.23c0,96.03 0,224.85 0,353 0,127.9 0,256.72 0,352.75l0.26 34.22 26.47 31.54 45.86 50.58c27.32,28.24 46.03,44.01 46.03,44.01 0,0 19.06,-15.77 46.46,-44.01l45.78 -50.58 26.47 -31.54 0.25 -34.22c0,-96.03 0,-224.85 0,-352.75 0,-128.15 0,-256.97 0,-353l-1.77 -34.23 -26.47 -31.53 -31.78 -35.41 36 32.71 31.19 26.81 34.48 0.34c96.11,0 224.6,0 353.08,0 128.15,0 256.39,0 352.75,0l34.48 -2.11 31.2 -26.22 34.56 -31.53 -31.87 35.41 -26.47 31.53 -0.59 34.23c0,96.03 0,224.85 0,353 0,127.9 0,256.72 0,352.75l2.11 34.22 26.47 31.54 45.53 50.58c27.06,28.24 44.85,44.01 44.85,44.01 0,0 18.13,-15.77 44.94,-44.01l45.52 -50.58 26.48 -31.54 2.02 -34.22c0,-96.03 0,-224.85 0,-352.75 0,-128.15 0,-256.97 0,-353z"/>
   <path class="fil2" d="M12435.75 17811.92l-97.54 0c4.72,0 9.19,0 13.99,0 11.55,0 23.19,0 34.74,0 11.38,0 22.93,0 34.56,0 4.72,0 9.53,0 14.25,0z"/>
   <path class="fil3" d="M12386.94 17811.92c-11.55,0 -23.19,0 -34.74,0 11.55,-0.34 23.19,-0.34 34.74,-0.34l0 0c11.38,0 22.93,0 34.56,0.34 -11.63,0 -23.18,0 -34.56,0z"/>
  </g>
 </g>
</svg>
