<?xml version="1.0" encoding="UTF-8"?>
<!DOCTYPE svg PUBLIC "-//W3C//DTD SVG 1.1//EN" "http://www.w3.org/Graphics/SVG/1.1/DTD/svg11.dtd">
<!-- Creator: CorelDRAW -->
<svg xmlns="http://www.w3.org/2000/svg" xml:space="preserve" width="180mm" height="180mm" version="1.1" style="shape-rendering:geometricPrecision; text-rendering:geometricPrecision; image-rendering:optimizeQuality; fill-rule:evenodd; clip-rule:evenodd"
viewBox="0 0 18000 18000"
 xmlns:xlink="http://www.w3.org/1999/xlink"
 xmlns:xodm="http://www.corel.com/coreldraw/odm/2003">
 <defs>
  <style type="text/css">
   <![CDATA[
    .str0 {stroke:#2B2A29;stroke-width:75;stroke-miterlimit:22.9256}
    .str1 {stroke:#0D0D0D;stroke-width:20;stroke-miterlimit:22.9256}
    .fil1 {fill:none}
    .fil2 {fill:#C5C6C6;fill-rule:nonzero}
    .fil3 {fill:#0D0D0D;fill-rule:nonzero}
    .fil0 {fill:url(#id0)}
   ]]>
  </style>
  <linearGradient id="id0" gradientUnits="userSpaceOnUse" x1="-9653.34" y1="19646.64" x2="27652.46" y2="-6289.03">
   <stop offset="0" style="stop-opacity:1; stop-color:#ED0E0C"/>
   <stop offset="0.152941" style="stop-opacity:1; stop-color:#E11A15"/>
   <stop offset="0.45098" style="stop-opacity:1; stop-color:#D4271E"/>
   <stop offset="1" style="stop-opacity:1; stop-color:#690D0D"/>
  </linearGradient>
 </defs>
 <g id="Katman_x0020_1">
  <metadata id="CorelCorpID_0Corel-Layer"/>
  <path class="fil0" d="M1644.79 3224.3l14710.31 0c783.03,0 1423.57,640.66 1423.57,1423.64l0 8704.26c0,782.98 -640.54,1423.64 -1423.57,1423.64l-14710.31 0c-783.02,0 -1423.6,-640.66 -1423.6,-1423.64l0 -8704.26c0,-782.98 640.58,-1423.64 1423.6,-1423.64zm357.24 1016.8l8695.33 0c386.12,0 701.95,315.9 701.95,701.98l0 8113.98c0,386.08 -315.83,701.98 -701.95,701.98l-8695.33 0c-386.11,0 -701.94,-315.9 -701.94,-701.98l0 -8113.98c0,-386.08 315.83,-701.98 701.94,-701.98zm14059.45 701.98c192.51,0 349.98,157.47 349.98,349.98l0 7414.02c0,192.51 -157.47,349.98 -349.98,349.98 -192.52,0 -349.98,-157.47 -349.98,-349.98l0 -7414.02c0,-192.51 157.46,-349.98 349.98,-349.98zm-1513.38 0c192.51,0 349.98,157.47 349.98,349.98l0 7414.02c0,192.51 -157.47,349.98 -349.98,349.98 -192.52,0 -349.98,-157.47 -349.98,-349.98l0 -7414.02c0,-192.51 157.46,-349.98 349.98,-349.98zm-1513.38 0c192.51,0 349.98,157.47 349.98,349.98l0 7414.02c0,192.51 -157.47,349.98 -349.98,349.98 -192.52,0 -349.98,-157.47 -349.98,-349.98l0 -7414.02c0,-192.51 157.46,-349.98 349.98,-349.98z"/>
  <rect class="fil1 str0" x="1300.04" y="4241.12" width="10099.22" height="9517.91" rx="744.88" ry="357.38"/>
  <rect class="fil1 str0" x="15711.49" y="4943.1" width="699.96" height="8113.95" rx="349.99" ry="2065.38"/>
  <rect class="fil1 str0" x="14198.11" y="4943.1" width="699.96" height="8113.95" rx="349.99" ry="2065.38"/>
  <rect class="fil1 str0" x="12684.73" y="4943.1" width="699.96" height="8113.95" rx="349.99" ry="2065.38"/>
  <path class="fil2 str1" d="M6349.7 7826c648.46,0 1174.07,525.61 1174.07,1174.07 0,648.46 -525.61,1174.07 -1174.07,1174.07 -648.46,0 -1174.07,-525.61 -1174.07,-1174.07 0,-648.46 525.61,-1174.07 1174.07,-1174.07zm4129.22 870.97c-950.97,136.82 -1915.33,142.3 -2867.51,19.88 3.42,-2.06 7.53,-2.76 10.83,-5.09 811.56,-607.51 1532.05,-1327.89 2139.45,-2139.32 49.44,-66.41 41.22,-168.14 -17.12,-226.75 -165,-165 -329.72,-329.69 -494.56,-494.41 -58.46,-58.61 -145.28,-51.62 -195,14.63 -575.49,769.25 -1253.53,1455.12 -2013.61,2041.83 0.81,-3.96 3.57,-7.53 4.11,-11.64 144.31,-1003.26 144.31,-2022.23 0,-3025.48 -11.8,-81.9 -89.43,-148.04 -172.25,-148.04 -233.2,0 -466.23,0 -699.15,0 -82.83,0 -139.54,66.14 -127.47,148.04 136.9,950.81 142.37,1915.72 19.72,2868.05 -2.06,-3.57 -2.76,-7.84 -5.36,-11.26 -607,-811.55 -1327.77,-1531.93 -2139.17,-2139.05 -66.29,-49.69 -168.18,-41.77 -226.47,16.84 -165,164.73 -329.73,329.72 -494.61,494.45 -58.45,58.33 -51.46,145.28 14.52,195 769.25,575.33 1455.24,1253.68 2041.83,2013.49 -3.96,-0.85 -7.53,-3.45 -11.49,-4 -1003.1,-144.19 -2022,-144.19 -3025.52,0 -81.74,11.92 -148,89.55 -148,172.41 0,233.04 0,466.08 0,699.15 0,83.1 66.26,139.38 148,127.47 951.09,-136.78 1915.72,-142.26 2867.78,-19.72 -3.57,2.06 -7.65,2.71 -10.95,5.2 -811.43,607.28 -1531.93,1327.62 -2139.21,2139.17 -49.68,66.29 -41.76,168.02 17,226.75 164.85,164.88 329.57,329.6 494.3,494.33 58.76,58.61 145.55,51.62 194.99,-14.52 575.88,-769.24 1253.96,-1455.23 2013.89,-2041.82 -0.94,3.95 -3.69,7.37 -4.12,11.6 -144.42,1003.14 -144.42,2022.27 0,3025.52 11.65,81.9 89.58,147.88 172.14,147.88 233.19,0 466.5,0 699.42,0 82.56,0 139.23,-65.98 127.46,-147.88 -136.93,-950.82 -142.4,-1915.72 -19.71,-2868.05 2.17,3.57 2.75,7.8 5.35,11.1 607.13,811.55 1327.47,1532.05 2138.9,2139.21 66.41,49.68 168.14,41.76 226.75,-17 164.57,-164.73 329.72,-329.57 494.45,-494.29 58.45,-58.49 51.62,-145.44 -14.79,-194.85 -768.97,-575.64 -1454.96,-1253.83 -2041.55,-2013.76 3.95,0.93 7.53,3.57 11.64,4.11 1003.1,144.43 2021.84,144.43 3025.09,0 81.86,-12.07 148.42,-89.7 148.42,-172.52 0,-233.08 0,-466.12 0,-699.15 0,-82.87 -66.56,-139.27 -148.42,-127.51z"/>
  <path class="fil3" d="M6349.7 10218.43c-671.99,0 -1218.36,-546.37 -1218.36,-1218.36 0,-671.71 546.37,-1218.36 1218.36,-1218.36 671.71,0 1218.36,546.65 1218.36,1218.36 0,671.99 -546.65,1218.36 -1218.36,1218.36zm0 -2166.81c-523.82,0 -948.45,424.63 -948.45,948.45 0,523.82 424.63,948.45 948.45,948.45 523.82,0 948.45,-424.63 948.45,-948.45 0,-523.82 -424.63,-948.45 -948.45,-948.45z"/>
  <path class="fil3" d="M6349.89 9361.04c-199.5,0 -361.82,-161.74 -361.82,-360.93 0,-198.96 162.32,-361.01 361.82,-361.01 199.2,0 361.47,162.05 361.47,361.01 0,199.19 -162.27,360.93 -361.47,360.93z"/>
 </g>
</svg>
