<?xml version="1.0" encoding="UTF-8"?>
<!DOCTYPE svg PUBLIC "-//W3C//DTD SVG 1.1//EN" "http://www.w3.org/Graphics/SVG/1.1/DTD/svg11.dtd">
<!-- Creator: CorelDRAW -->
<svg xmlns="http://www.w3.org/2000/svg" xml:space="preserve" width="180mm" height="180mm" version="1.1" style="shape-rendering:geometricPrecision; text-rendering:geometricPrecision; image-rendering:optimizeQuality; fill-rule:evenodd; clip-rule:evenodd"
viewBox="0 0 18000 18000"
 xmlns:xlink="http://www.w3.org/1999/xlink"
 xmlns:xodm="http://www.corel.com/coreldraw/odm/2003">
 <defs>
  <style type="text/css">
   <![CDATA[
    .fil0 {fill:url(#id0)}
   ]]>
  </style>
  <linearGradient id="id0" gradientUnits="userSpaceOnUse" x1="-866.09" y1="32872" x2="18865.95" y2="6651.46">
   <stop offset="0" style="stop-opacity:1; stop-color:#ED0E0C"/>
   <stop offset="0.215686" style="stop-opacity:1; stop-color:#EB1110"/>
   <stop offset="0.639216" style="stop-opacity:1; stop-color:#E81515"/>
   <stop offset="1" style="stop-opacity:1; stop-color:#690D0D"/>
  </linearGradient>
 </defs>
 <g id="Katman_x0020_1">
  <metadata id="CorelCorpID_0Corel-Layer"/>
  <path class="fil0" d="M12547.24 907.16l-4655.33 0c-127.1,85.54 -501.6,246.91 -318.98,671.04 140.28,325.77 386.83,218.43 749.94,292.54l-2.65 8868.05 81.88 30.06c8.7,2.16 18.07,4.36 27.71,6.45 469,101.27 223.61,24.27 741.35,236.77 367.29,150.73 508.62,-11.28 828.49,-128.97 950.89,-349.93 1332.27,317.93 1782.53,171.08 729.47,-237.88 753,-477.37 1739.4,-62.05 725.18,305.27 521.31,-340.08 1801.16,-178.4 -244.35,-1428.41 -1344.18,-2864.96 -2615.1,-3527.04 -89.46,-46.6 -199.46,-96.79 -298.11,-145.51 -102.82,-50.82 -223.5,-67.88 -292.47,-164.33l-0.11 -5120.78c362.07,-1.27 629.11,6.05 750.13,-275.86 61.64,-143.64 54.4,-298.59 -24.12,-436.07 -85.4,-149.54 -142.34,-135.61 -295.72,-236.98zm-9663.91 4575.34l0.3 2649.86 4488.98 14.3 -0.07 -2640.22c185.08,-128.45 393.28,-259.28 292.06,-605.29 -77.55,-264.99 -303.86,-328.43 -622.51,-327.27l-3762.23 0.37c-327.75,-1.01 -566.12,30.4 -670.89,276.45 -131.84,309.76 50.11,559.44 274.36,631.8zm2004.24 11610.46l506.94 0c129.41,-60.56 333.95,-77.02 477.22,-126.83 425.92,-148.05 812.4,-440.56 1070.34,-794.45 451.38,-619.21 430.39,-1195.04 430.39,-2081.94 0,-1664.91 -2.8,-3330.12 0.15,-4994.95l-4489.8 0.82 0.89 838.32c470.46,93.42 1444.62,-212.23 1444.13,488.79 -0.45,702.48 -990.99,398.51 -1444.39,488.76l0.19 919.23c475.76,93.72 1444.65,-212.35 1444.16,488.68 -0.18,273.54 -212.67,458.25 -477.81,473.41 -277.01,15.87 -717.98,-34.61 -966.28,15.46l-0.11 919.23c481.63,95.58 1406.61,-207.6 1443.38,457.87 37.23,673.21 -892.68,505.15 -1442.86,505.15 -2.05,797.02 191.77,1170.41 557.54,1640.05 497.01,638.14 1250.45,677.09 1445.92,762.4zm5044.02 0l681.83 0c203.57,-77.1 956.57,-41.78 1948.01,-551.03 1751.46,-899.59 2898.64,-2671.36 2873.54,-4703.72 -469.67,-90.62 -391,-216.64 -897.12,10.04 -1019.74,456.76 -1335.44,-92.3 -1778.49,-124.18 -186.02,-13.37 -610.11,221.64 -851.5,275.89 -352.47,79.23 -648.3,-3.92 -937.94,-131.43 -409,-180.08 -425.73,-201.1 -849.25,-11.58 -1022.51,457.58 -1397.8,-163.01 -1799.93,-124.03 -4.82,753.3 60.97,3209.29 -86.47,3836.05 -103.17,438.54 -260.25,627.8 -380.82,967.92 550.74,185.64 809.01,374.87 1504.28,484.2 160.15,25.16 444.74,39.32 573.86,71.87zm1712.83 -3189.84c278.14,0 503.62,225.48 503.62,503.63 0,278.14 -225.48,503.62 -503.62,503.62 -278.15,0 -503.63,-225.48 -503.63,-503.62 0,-278.15 225.48,-503.63 503.63,-503.63zm-1644.71 -991.47c278.14,0 503.62,225.48 503.62,503.63 0,278.14 -225.48,503.62 -503.62,503.62 -278.15,0 -503.63,-225.48 -503.63,-503.62 0,-278.15 225.48,-503.63 503.63,-503.63zm1545.06 -4326.18c278.15,0 503.63,225.48 503.63,503.63 0,278.14 -225.48,503.62 -503.63,503.62 -278.14,0 -503.62,-225.48 -503.62,-503.62 0,-278.15 225.48,-503.63 503.62,-503.63z"/>
 </g>
</svg>
