<?xml version="1.0" encoding="UTF-8"?>
<!DOCTYPE svg PUBLIC "-//W3C//DTD SVG 1.1//EN" "http://www.w3.org/Graphics/SVG/1.1/DTD/svg11.dtd">
<!-- Creator: CorelDRAW -->
<svg xmlns="http://www.w3.org/2000/svg" xml:space="preserve" width="180mm" height="180mm" version="1.1" style="shape-rendering:geometricPrecision; text-rendering:geometricPrecision; image-rendering:optimizeQuality; fill-rule:evenodd; clip-rule:evenodd"
viewBox="0 0 18000 18000"
 xmlns:xlink="http://www.w3.org/1999/xlink"
 xmlns:xodm="http://www.corel.com/coreldraw/odm/2003">
 <defs>
  <style type="text/css">
   <![CDATA[
    .fil3 {fill:url(#id0)}
    .fil0 {fill:url(#id1)}
    .fil1 {fill:url(#id2)}
    .fil2 {fill:url(#id3)}
   ]]>
  </style>
  <linearGradient id="id0" gradientUnits="userSpaceOnUse" x1="-1425.58" y1="28907.87" x2="20883.74" y2="5973.66">
   <stop offset="0" style="stop-opacity:1; stop-color:#ED0E0C"/>
   <stop offset="0.215686" style="stop-opacity:1; stop-color:#EB1110"/>
   <stop offset="0.639216" style="stop-opacity:1; stop-color:#E81515"/>
   <stop offset="1" style="stop-opacity:1; stop-color:#690D0D"/>
  </linearGradient>
  <linearGradient id="id1" gradientUnits="userSpaceOnUse" xlink:href="#id0" x1="4173.85" y1="29829.06" x2="19264.13" y2="7534.79">
  </linearGradient>
  <linearGradient id="id2" gradientUnits="userSpaceOnUse" xlink:href="#id0" x1="4652.83" y1="27890.51" x2="7028.06" y2="9877.86">
  </linearGradient>
  <linearGradient id="id3" gradientUnits="userSpaceOnUse" xlink:href="#id0" x1="581.8" y1="25915.79" x2="2957.16" y2="7903.11">
  </linearGradient>
 </defs>
 <g id="Katman_x0020_1">
  <metadata id="CorelCorpID_0Corel-Layer"/>
  <g id="_3037711606992">
   <path class="fil0" d="M12448.14 2650.64l-5559.61 0 0 13671.04 -30.4 30.4 0 30.31c-30.31,0 -30.31,30.41 -60.71,30.41l9843.14 0 0 -13762.16 -4192.42 0zm1670.84 8202.62l729.15 0c60.8,0 121.52,60.71 121.52,121.52l0 4891.17c0,60.81 -60.72,121.52 -121.52,121.52l-729.15 0c-60.71,0 -121.52,-60.71 -121.52,-121.52l0 -4860.77c-30.38,-91.21 30.41,-151.92 121.52,-151.92zm-1275.91 1306.32l729.07 0c60.8,0 121.52,60.78 121.52,121.5l0 3615.28c0,60.79 -60.72,121.5 -121.52,121.5l-729.07 0c-60.79,0 -121.5,-60.71 -121.5,-121.5l0 -3615.28c0,-60.72 60.71,-121.5 121.5,-121.5zm-1215.19 1336.78l759.46 0c60.8,0 121.52,60.71 121.52,121.51l0 2278.49c0,60.79 -60.72,121.5 -121.52,121.5l-759.46 0c-60.8,0 -121.59,-60.71 -121.59,-121.5l0 -2278.49c0,-60.8 60.79,-121.51 121.59,-121.51zm-1215.28 -729.15l759.55 0c60.72,0 121.51,60.71 121.51,121.51l0 3007.64c0,60.79 -60.79,121.5 -121.51,121.5l-759.55 0c-60.71,0 -121.51,-60.71 -121.51,-121.5l0 -3007.64c-30.31,-60.8 30.4,-121.51 121.51,-121.51zm-1245.51 1367.1l759.46 0c60.8,0 121.52,60.71 121.52,121.52l0 1640.53c0,60.79 -60.72,121.5 -121.52,121.5l-759.46 0c-60.8,0 -121.59,-60.71 -121.59,-121.5l0 -1640.53c0,-60.81 60.79,-121.52 121.59,-121.52zm-1215.28 -394.92l729.15 0c60.81,0 121.52,60.71 121.52,121.5l0 2035.47c0,60.79 -60.71,121.5 -121.52,121.5l-729.15 0c-60.71,0 -121.51,-60.71 -121.51,-121.5l0 -2035.47c0,-60.79 60.8,-121.5 121.51,-121.5zm1883.64 -6258.28c-60.8,0 -121.52,-60.81 -121.52,-121.6 0,-60.71 60.72,-121.51 121.52,-121.51l4587.35 0c60.79,0 121.51,60.8 121.51,121.51 0,60.79 -60.72,121.6 -121.51,121.6l-4587.35 0zm0 -607.65c-60.8,0 -121.52,-60.79 -121.52,-121.5 0,-60.81 60.72,-121.52 121.52,-121.52l2278.47 0c60.8,0 121.52,60.71 121.52,121.52 0,60.71 -60.72,121.5 -121.52,121.5l-2278.47 0zm-1883.64 -729.15l1154.48 0c60.8,0 121.51,60.81 121.51,121.52l0 1154.47c0,60.81 -60.71,121.52 -121.51,121.52l-1154.48 0c-60.71,0 -121.51,-60.71 -121.51,-121.52l0 -1154.47c0,-91.12 30.4,-121.52 121.51,-121.52zm1883.64 -941.78c-60.8,0 -121.52,-60.71 -121.52,-121.5 0,-60.71 60.72,-121.52 121.52,-121.52l4587.35 0c60.79,0 121.51,60.81 121.51,121.52 0,60.79 -60.72,121.5 -121.51,121.5l-4587.35 0zm0 -607.55c-60.8,0 -121.52,-60.79 -121.52,-121.51 0,-60.8 60.72,-121.59 121.52,-121.59l2278.47 0c60.8,0 121.52,60.79 121.52,121.59 0,60.72 -60.72,121.51 -121.52,121.51l-2278.47 0zm-1883.64 -729.15l1154.48 0c60.8,0 121.51,60.8 121.51,121.51l0 1154.48c0,60.71 -60.71,121.52 -121.51,121.52l-1154.48 0c-60.71,0 -121.51,-60.81 -121.51,-121.52l0 -1154.48c0,-60.71 30.4,-121.51 121.51,-121.51z"/>
   <path class="fil1" d="M6615.11 5931.69l-1549.34 0 0 10359.59c0,212.71 91.12,394.94 212.64,546.84 121.5,121.52 273.42,212.71 455.72,212.71l0 0 0 0 0 0 0 0 0 0 0 0 0 0 0 0 0 0 0 0 0 0 0 0 0 0 30.31 0 0 0 0 0 0 0 0 0 0 0 0 0 0 0 0 0 0 0 0 0 0 0 0 0 0 0 0 0 0 0 0 0 0 0 0 0 0 0 0 0 0 0 0 0 0 0 0 0 0 0 0 0 0 0 0 0 0 0 0 0 0 0 0 0 0 0 0 0 0 0 0 0 0 0 0 0 0 0 0 0 0 0 0 0 0 0 0 0 0 0 0 0 0 0 0 0 0 0 0 0 0 0 0 0 0 0 0 0 0 0 0 0 0 0 0 0 0 0 0 0 0 0 0 0 0 0 0 0 0 0 0 0 0 0 0 0 0 0 0 0 0 0 0 0 0 0 0 0 0 0 0 0 0 0 0 0 0 0 0 0 0 0 0 0 0 0 0 0 0 0 0 0 0 0 0 0 0 0 0 0 0 0 0 0 0 0 0 0 0 0 0 0 0 0 0 0 0 0 0 0 0 0 0 0 0 0 0 0 0 0 0 0 0 0 0 0 0 0 0 0 0 0 0 0 0 0 0 0 0 0 0 0 0 0 0 0 0 0 0 0 0 0 30.41 0 0 0 0 0 0 0 0 0 0 0 0 0 0 0 0 0 0 0 0 0 0 0 0 0 0 0 0 0 0 0 0 0 0 0 0 0 0 0 0 0 0 0 0 0 0 0 0 0 0 0 0 0 0 0 0 0 0 0 0 0 0 0 0 0 0 0 0 0 0 0 0 0 0 0 0 0 0 0 0 0 0 0 0 0 0 0 0 0 0 0 0 0 0 0 0 0 0 0 0 0 0 0 0 0 0 0 0 0 0 0 0 0 0 0 0 0 0 0 0 0 0 0 0 0 0 0 0 0 0 0 0 0 0 0 0 0 0 0 0 0 0 0 0 0 0 0 0 0 0 0 0 0 0 0 0 0 0 0 0 0 0 0 0 0 0 0 0 0 0 0 0 0 0 0 0 0 0 0 0 0 0 0 0 0 0 0 0 0 0 0 0 0 0 0 0 0 0 0 0 0 0 0 0 0 0 0 0 0 0 0 0 0 0 0 0 0 0 0 0 0 0 0 0 0 0 0 0 0 0 0 0 0 0 0 0 0 0 0 0 0 0 0 0 0 0 0 0 0 0 0 0 0 0 0 0 0 0 0 0 0 0 0 0 0 0 0 0 0 0 0 0 0 0 0 0 0 0 0 820.26 -11119.14 0 0z"/>
   <path class="fil2" d="M2544.2 3956.94l-1549.42 0 0 10359.68c0,212.63 91.2,394.94 212.71,546.84 121.5,121.52 273.42,212.63 455.64,212.63l0 0 0 0 0 0 0 0 0 0 0 0 0 0 0 0 0 0 0 0 0 0 0 0 0 0 30.4 0 0 0 0 0 0 0 0 0 0 0 0 0 0 0 0 0 0 0 0 0 0 0 0 0 0 0 0 0 0 0 0 0 0 0 0 0 0 0 0 0 0 0 0 0 0 0 0 0 0 0 0 0 0 0 0 0 0 0 0 0 0 0 0 0 0 0 0 0 0 0 0 0 0 0 0 0 0 0 0 0 0 0 0 0 0 0 0 0 0 0 0 0 0 0 0 0 0 0 0 0 0 0 0 0 0 0 0 0 0 0 0 0 0 0 0 0 30.4 0 0 0c91.12,-30.4 182.31,-91.11 273.42,-182.3 91.12,-91.12 151.91,-182.23 182.31,-303.75l0 0 0 0 0 0 0 0 0 0 0 -30.39 0 0 0 0 0 0 0 0 0 0c0,0 0,-30.4 0,-60.8l0 0 0 0 0 0 0 0 0 0 0 0 0 0 0 0 0 0 0 0 0 0 0 0 0 0 0 0 0 0 0 0 0 0 0 0 0 0 0 0 0 0 0 0 0 0 0 0 0 0 0 0 0 0 0 0 0 0 364.54 -10541.91 0 0z"/>
   <path class="fil3" d="M12296.22 1860.78l4587.37 0c60.79,0 121.51,60.71 121.51,121.5l0 9812.76c0,60.8 -60.72,121.52 -121.51,121.52 -60.71,0 -121.51,-60.72 -121.51,-121.52l0 -9691.24 -4465.86 0 0 273.42 -5559.61 0c-60.71,0 -121.5,60.71 -121.5,121.5l0 3129.15 -1670.93 0c-60.71,0 -121.52,60.79 -121.52,121.5l0 9357.13 -2369.58 0 0 0 0 0c151.9,-151.92 243.02,-303.83 303.73,-516.46l0 0 0 0 0 0 0 0 0 0 0 0 0 0 0 0 0 0 0 0 0 0 0 0 0 0 0 0 0 0 0 0 0 0 0 0 0 0 0 0 0 0 0 0 0 0 0 0 0 0 0 0 0 0 0 0 0 0 0 0 0 0 0 0c0,-4557.04 0,-9083.69 0,-13640.73l9509.03 0 30.38 911.47 0 0z"/>
  </g>
 </g>
</svg>
