<?xml version="1.0" encoding="UTF-8"?>
<!DOCTYPE svg PUBLIC "-//W3C//DTD SVG 1.1//EN" "http://www.w3.org/Graphics/SVG/1.1/DTD/svg11.dtd">
<!-- Creator: CorelDRAW -->
<svg xmlns="http://www.w3.org/2000/svg" xml:space="preserve" width="180mm" height="180mm" version="1.1" style="shape-rendering:geometricPrecision; text-rendering:geometricPrecision; image-rendering:optimizeQuality; fill-rule:evenodd; clip-rule:evenodd"
viewBox="0 0 18000 18000"
 xmlns:xlink="http://www.w3.org/1999/xlink"
 xmlns:xodm="http://www.corel.com/coreldraw/odm/2003">
 <defs>
  <style type="text/css">
   <![CDATA[
    .fil2 {fill:black}
    .fil3 {fill:#6C0100}
    .fil1 {fill:#FF0400}
    .fil0 {fill:url(#id0)}
   ]]>
  </style>
  <linearGradient id="id0" gradientUnits="userSpaceOnUse" x1="-3957.36" y1="22937.35" x2="21957.21" y2="5216.75">
   <stop offset="0" style="stop-opacity:1; stop-color:#ED0E0C"/>
   <stop offset="0.215686" style="stop-opacity:1; stop-color:#EB1110"/>
   <stop offset="0.639216" style="stop-opacity:1; stop-color:#E81515"/>
   <stop offset="1" style="stop-opacity:1; stop-color:#690D0D"/>
  </linearGradient>
 </defs>
 <g id="Katman_x0020_1">
  <metadata id="CorelCorpID_0Corel-Layer"/>
  <g id="_3037943758384">
   <path class="fil0" d="M1899.07 1334.58c-348.59,36.38 -648.64,190.86 -900.19,442.42 -257.65,257.56 -450.78,643.99 -450.78,1062.54l0 579.56 12911.21 0c64.34,0 128.78,64.35 128.78,128.78 0,64.34 -64.44,128.78 -128.78,128.78l-12879.08 0 0 7083.44c0,418.56 161,772.77 450.77,1062.55 257.65,257.56 643.99,450.78 1062.55,450.78l8725.54 0 -450.77 -740.56c-643.99,193.13 -1352.33,193.13 -1964.1,32.22 -901.46,-257.65 -1706.45,-837.21 -2221.57,-1706.54l0 -32.12c-515.21,-869.34 -611.77,-1867.54 -354.21,-2769 257.56,-901.55 837.12,-1706.54 1706.45,-2221.66l32.22 0c869.33,-515.12 1867.44,-611.77 2768.99,-354.21 901.55,257.65 1706.45,837.21 2221.66,1706.54l0 32.12c515.12,869.33 611.77,1867.54 354.12,2769 -161,643.99 -515.12,1223.55 -998.11,1706.54l611.77 1062.45 32.22 0 32.21 0 32.13 0 32.22 32.22c64.44,32.22 96.56,96.56 128.78,161l161 289.77 2994.34 0c418.64,0 772.76,-160.99 1062.54,-450.77 257.56,-257.56 450.78,-643.99 450.78,-1062.55l0 -7920.55c0,-801.27 -648.37,-1458.36 -1446.36,-1472.75l-14106.33 0zm709.6 378.07c161,0 321.99,64.35 450.78,193.13 96.65,96.65 160.99,257.56 160.99,418.56 0,160.99 -64.34,321.99 -193.12,450.77 -96.66,96.66 -257.65,193.22 -450.77,193.22 -161,0 -322,-64.44 -450.78,-193.22 -96.66,-96.56 -161,-257.56 -161,-418.56 0,-161 64.34,-321.99 193.21,-450.77 96.57,-128.78 257.57,-193.13 450.69,-193.13zm1803.1 0c161,0 322,64.35 450.78,193.13 96.56,96.65 161,257.56 161,418.56 0,160.99 -64.44,321.99 -193.22,450.77 -96.56,96.66 -257.56,193.22 -450.77,193.22 -161,0 -322,-64.44 -450.78,-193.22 -96.56,-96.56 -161,-257.56 -161,-418.56 0,-161 64.44,-321.99 193.21,-450.77 128.79,-128.78 289.78,-193.13 450.78,-193.13zm1835.23 0c160.99,0 321.99,64.35 450.77,193.13 96.66,96.65 193.22,257.56 193.22,450.77 0,161 -64.43,322 -193.22,450.78 -96.56,96.56 -257.55,193.21 -450.77,193.21 -161,0 -321.91,-64.43 -450.77,-193.21 -96.57,-96.56 -193.13,-257.56 -193.13,-450.78 0,-161 64.34,-321.99 193.13,-450.77 128.86,-128.78 289.77,-193.13 450.77,-193.13zm1062.55 2608c64.43,0 161,64.35 161,128.78 0,64.35 -32.23,96.56 -96.57,128.78 -933.76,547.34 -1545.54,1416.67 -1803.1,2382.57 -257.56,965.98 -160.99,2028.44 386.34,2994.42 0,32.13 32.22,32.13 32.22,64.35 0,64.43 -64.35,160.99 -128.78,160.99 -64.43,0 -96.56,-32.21 -128.78,-96.56 -579.56,-998.11 -708.33,-2157.22 -418.56,-3187.55 289.78,-1030.33 933.68,-1964.1 1964.01,-2543.65 -32.22,-32.13 0,-32.13 32.22,-32.13zm6149.76 4539.79c0,64.43 -96.66,128.78 -161,96.65 -64.43,-32.22 -128.78,-96.65 -96.65,-160.99 96.65,-483 128.78,-965.99 32.22,-1448.9 -64.35,-450.77 -225.34,-933.76 -483,-1352.32 -32.12,-64.43 0,-161 64.44,-193.21 64.43,-32.13 160.99,0 193.22,64.43 257.55,450.77 450.77,965.9 515.11,1448.89 64.44,515.12 32.22,1062.54 -64.34,1545.45zm-10399.86 -1835.23l1577.66 0c64.44,0 128.87,64.34 128.87,128.78l0 1577.67c0,64.44 -64.43,128.78 -128.87,128.78l-1577.66 0c-64.35,0 -128.79,-64.34 -128.79,-128.78l0 -1577.67c0,-64.44 64.44,-128.78 128.79,-128.78zm10850.54 0l1577.76 0c64.35,0 160.91,64.34 160.91,128.78l0 1577.67c0,64.44 -64.35,128.78 -160.91,128.78l-1577.76 0c-64.34,0 -128.78,-64.34 -128.78,-128.78l0 -1577.67c0,-64.44 32.22,-128.78 128.78,-128.78z"/>
   <path class="fil1" d="M11623.99 10502.54c482.99,-450.77 837.12,-1030.33 998.11,-1642.1 225.44,-837.12 128.78,-1770.89 -321.9,-2575.78 -482.99,-804.9 -1223.55,-1352.33 -2060.66,-1577.67 -837.12,-225.43 -1770.89,-128.78 -2575.78,354.13 -804.99,482.99 -1352.33,1223.54 -1577.76,2060.66 -225.34,837.11 -128.78,1770.88 321.99,2575.77 483,804.99 1223.55,1352.33 2060.66,1577.76 611.78,160.91 1287.9,160.91 1899.67,-32.21l1255.67 -740.56zm-3484.56 -1146.87l2429.28 0c109.05,0 198.28,-89.22 198.28,-198.28l0 -2429.14c0,-109.05 -89.23,-198.28 -198.28,-198.28l-2429.28 0c-109.06,0 -198.28,89.23 -198.28,198.28l0 2429.14c0,109.06 89.22,198.28 198.28,198.28z"/>
   <polygon class="fil2" points="11173.22,10824.53 11173.22,10824.53 11173.22,10824.53 "/>
   <polygon class="fil2" points="11141.09,10856.66 11141.09,10856.66 11141.09,10856.66 "/>
   <polygon class="fil2" points="11141.09,10856.66 11141.09,10856.66 "/>
   <polygon class="fil2" points="11108.87,10888.88 11108.87,10888.88 "/>
   <polygon class="fil2" points="11108.87,10888.88 11108.87,10888.88 11108.87,10888.88 "/>
   <polygon class="fil2" points="11076.65,10888.88 11076.65,10888.88 11076.65,10888.88 "/>
   <polygon class="fil2" points="11076.65,10888.88 11076.65,10888.88 "/>
   <line class="fil2" x1="11044.44" y1="10921.1" x2="11044.44" y2= "10921.1" />
   <path class="fil3" d="M11817.21 11082.1l-161 -257.57 0 0 0 0 0 0 0 0 0 0 0 0 0 0 0 0 0 0 0 0 0 0 0 0 0 0 0 0 0 0 0 0 0 0 0 0 0 0 0 0 0 0 0 0 0 0 0 0 0 0 0 0 0 0 0 0 0 0 0 0 0 0 0 0 0 0 0 0 0 0 0 0 0 0 0 0 0 0 0 0 0 0 0 0 0 0 0 0 0 0 0 0 0 0 0 0 0 0 0 0 0 0 0 0 0 0 0 0 0 0 0 0 0 0 0 0 0 0 0 0 0 0 0 0 0 0 0 0 0 0 0 0 0 0 0 0 0 0 0 0 0 0 0 0 0 0 0 0 0 0 0 0 0 0 0 0 0 0 0 0 0 0 0 0 0 0 0 0 0 0 0 0 0 0 0 0 0 0 0 0 0 0 0 0 0 0 0 0 0 0 0 0 0 0 0 0 0 0 0 0 0 0 0 0 0 0 0 0 0 0 0 0 0 0 0 0 0 0 0 0 0 0 0 0 0 0 0 0 0 0 0 0 0 0 0 0 0 0 0 0 0 0 0 0 0 0 0 0 0 0 0 0 0 0 0 0 0 0 0 0 0 0 0 0 0 0 0 0 0 0 0 0 0 0 0 0 0 0 0 0 0 0 0 0 0 0 0 0 0 0 0 0 0 0 0 0 0 0 0 0 0 0 0 0 0 0 0 0 0 0 0 0 0 0 0 0 0 0 0 0 0 0 0 0 0 0 0 0 0 0 0 0 0 0 0 0 0 0 0 0 0 0 0 0 0 0 0 0 0 0 0 0 0 0 0 0 0 0 0 0 0 0 0 0 0 0 0 0 0 0 0 0 0 0 0 0 0 0 0 0 0 0 0 0 0 0 0 0 0 0 0 0 0 0 0 0 0 0 0 0 0 0 0 0 0 0 0 0 0 0 0 0 0 0 0 0 0 0 0 0 0 0 0 0 0 0 0 0 0 0 0 0 0 0 0 0 0 0 0 0 0 0 0 0 0 0 0 0 0 0 0 0 0 0 0 0 0 0 0 0 0 0 0 0 0 0 0 0 0 0 0 0 0 0 0 0 0 0 0 0 0 0 0 0 0 0 0 0 0 0 0 0 0 0 0 0 0 0 0 0 0 0 0 0 0 0 0 0 0 0 0 0 0 0 0 0 0 0 0 0 0 0 0 0 0 0 0 0 0 0 0 0 0 0 0 0 0 0 0 0 0 0 0 0 0 0 0 0 0 0 0 0 0 0 0 0 0 0 0 0 0 0 0 0 0 0 0 0 0 0 0 0 0 0 0 0 0 0 0 0 0 0 0 0 0 0 0 0 0 0 0 0 0 0 0 0 0 0 0 0 0 0 0 0 0 0 0 0 0 0 0 0 0 0 0 0 0 0 0 0 0 0 0 0 0 0 0 0 0 0 0 0 0 0 0 0 0 0 0 0 0 0 0 0 0 0 0 0 0 0 0 0 0 0 0 0 0 0 0 0 0 0 0 0 0 0 0 0 0 0 0 0 0 0 0 0 0 0 0 0 0 0 0 0 0 0 0 0 0 0 0 0 0 0 0 0 0 0c-901.55,547.34 -933.77,579.56 -965.9,579.56l0 0 0 0 0 0 0 0 0 0 0 0 0 0 0 0 0 0 0 0 0 0 0 0 0 0 0 0 0 0 0 0 0 0 0 0 515.12 869.34 0 0 0 0 64.44 96.56 998.11 -579.56 32.22 -32.22 -482.99 -676.11z"/>
   <path class="fil3" d="M13233.88 12466.55c0,0 0,-32.13 0,0l-225.34 -354.12c-32.23,-32.22 -64.44,-64.44 -96.66,-96.65l-32.13 0 -32.21 0 -32.22 0c-32.22,0 -32.22,32.21 -64.44,32.21l-32.12 0 -32.22 32.22 -1287.89 740.55c0,0 0,0 -32.22,0l-32.21 32.22c-64.35,32.13 -128.79,128.78 -161,193.13 -32.13,64.43 0,160.99 32.21,257.65l1738.67 3219.68c32.21,64.43 128.78,128.77 193.21,128.77 64.35,32.22 161,0 257.57,-32.12l32.21 0 1384.45 -804.99c64.44,-32.22 128.78,-128.78 161,-193.13 32.22,-96.65 0,-160.99 -32.22,-257.65l-1706.44 -2897.77zm-193.22 2768.99c32.22,-161 128.87,-289.77 289.78,-354.12 161,-96.65 321.99,-96.65 450.77,-64.43 161,32.21 289.78,128.78 354.22,289.78l0 32.21c64.34,128.78 96.56,289.78 64.34,450.78 -32.13,161 -128.78,289.77 -257.56,354.12l-32.22 -32.13c-128.78,64.35 -289.78,96.56 -450.68,64.35 -161,-32.22 -289.78,-128.78 -354.21,-257.57l0 -32.21c-96.56,-128.78 -96.56,-289.78 -64.44,-450.78z"/>
  </g>
 </g>
</svg>
