<?xml version="1.0" encoding="UTF-8"?>
<!DOCTYPE svg PUBLIC "-//W3C//DTD SVG 1.1//EN" "http://www.w3.org/Graphics/SVG/1.1/DTD/svg11.dtd">
<!-- Creator: CorelDRAW -->
<svg xmlns="http://www.w3.org/2000/svg" xml:space="preserve" width="180mm" height="180mm" version="1.1" style="shape-rendering:geometricPrecision; text-rendering:geometricPrecision; image-rendering:optimizeQuality; fill-rule:evenodd; clip-rule:evenodd"
viewBox="0 0 18000 18000"
 xmlns:xlink="http://www.w3.org/1999/xlink"
 xmlns:xodm="http://www.corel.com/coreldraw/odm/2003">
 <defs>
  <style type="text/css">
   <![CDATA[
    .fil2 {fill:#949599}
    .fil1 {fill:#949599;fill-rule:nonzero}
    .fil0 {fill:url(#id0)}
    .fil3 {fill:url(#id1)}
   ]]>
  </style>
  <linearGradient id="id0" gradientUnits="userSpaceOnUse" x1="11752.73" y1="18225.84" x2="19152" y2="4630.53">
   <stop offset="0" style="stop-opacity:1; stop-color:#ED0E0C"/>
   <stop offset="0.215686" style="stop-opacity:1; stop-color:#EB1110"/>
   <stop offset="0.639216" style="stop-opacity:1; stop-color:#E81515"/>
   <stop offset="1" style="stop-opacity:1; stop-color:#690D0D"/>
  </linearGradient>
  <linearGradient id="id1" gradientUnits="userSpaceOnUse" x1="-1141.53" y1="9721.08" x2="11110.08" y2="-1438.91">
   <stop offset="0" style="stop-opacity:1; stop-color:#ED0E0C"/>
   <stop offset="0.133333" style="stop-opacity:1; stop-color:#EB1110"/>
   <stop offset="0.388235" style="stop-opacity:1; stop-color:#E81515"/>
   <stop offset="1" style="stop-opacity:1; stop-color:#690D0D"/>
  </linearGradient>
 </defs>
 <g id="Katman_x0020_1">
  <metadata id="CorelCorpID_0Corel-Layer"/>
  <g id="_3037726382416">
   <g>
    <path class="fil0" d="M16935.79 5756.42l-415.82 0 1342.21 3324.19c0.25,0.61 0.44,1.23 0.59,1.87 1.5,7.02 34.01,173.37 -166.79,396.19 -7.44,544.78 -175.96,565.12 -183.14,565.73 -0.32,0.03 -0.62,0.03 -0.94,0.03 -2.71,0 -5.29,-0.97 -7.35,-2.73 -2.28,-1.98 -3.7,-4.79 -3.91,-7.79l-24.41 -363.12c-6.91,4.84 -13.97,9.71 -21.19,14.63 -1.88,1.29 -4.11,1.96 -6.34,1.96 -1.12,0 -2.27,-0.17 -3.38,-0.53 -3.3,-1.02 -5.92,-3.49 -7.14,-6.69l-139.36 -362.94c-9.11,2.93 -19.32,5.56 -31.63,8.18 -27.12,5.76 -54.22,8.53 -80.89,8.53 -179.63,0 -341.45,-125.44 -380.27,-308 -37.61,-177.07 52.83,-357.34 215.72,-433.03l-1087.09 -2836.48 -374.85 0 0 513.67c0,37.13 -30.22,67.32 -67.33,67.32l-88.81 0c-37.11,0 -67.32,-30.19 -67.32,-67.32l0 -513.67 -365.79 0 -1503.95 3923.59c-1.24,3.23 -3.87,5.7 -7.15,6.73 -1.12,0.36 -2.25,0.53 -3.38,0.53 -2.24,0 -4.45,-0.68 -6.35,-1.97 -7.2,-4.89 -14.24,-9.73 -21.1,-14.63l-24 363.21c-0.18,3.03 -1.59,5.84 -3.88,7.82 -2.06,1.76 -4.67,2.73 -7.36,2.73 -0.31,0 -0.64,0 -0.94,-0.03 -7.22,-0.61 -176.36,-21.08 -183.26,-565.8 -201.47,-222.55 -168.69,-389.2 -167.19,-396.2l1343.19 -3325.98 -323.99 0 0 6.68c0,55.01 -44.76,100.31 -99.76,100.31 -55.01,0 -100.32,-45.3 -100.32,-100.31l0 -103.54c0,-55.01 45.31,-100.3 100.32,-100.3 55,0 99.76,45.29 99.76,100.3l0 6.69 360.41 0 638.87 -1581.96c-13.61,-24.72 -28.19,-48.48 -43.7,-71.18 -39.94,-58.75 -85.93,-111 -136.71,-155.32 -74.77,-65.17 -117.66,-157.31 -117.66,-252.81l0 -834.82c0,-134.1 77.86,-253.74 198.33,-304.82 100.61,-41.93 205.52,-62.33 279.32,-72.19l-10.1 -79.08c-0.07,-0.37 -0.11,-0.75 -0.14,-1.12l-37.42 -293.06c-0.05,-0.27 -0.09,-0.55 -0.11,-0.83l-27.47 -215.1c-5.31,-64.75 38.85,-123.44 102.68,-137.04 46.07,-9.82 106.93,-14.8 180.85,-14.8 37.17,0 71.04,1.26 101.4,3.76 4.43,-4.07 11.34,-3.95 15.64,0.34 0.38,0.38 0.72,0.78 1.03,1.2 23.25,2.37 44.22,5.55 62.79,9.5 64.29,13.68 107.48,71.07 102.72,136.44 -0.03,0.2 -0.03,0.4 -0.06,0.61l-46.14 358.98c0.36,2.17 0.08,4.43 -0.83,6.47l-28.76 223.73c73.76,9.87 178.66,30.26 279.22,72.15 120.85,51 198.89,170.66 198.89,304.86l0 834.82c0,95.22 -43.07,187.35 -118.2,252.81 -51.77,45.8 -97.76,98.06 -136.64,155.3 -13.51,20.02 -26.3,40.7 -38.33,61.97l642.48 1591.19 451.34 0 0 -26.62c0,-55 45.3,-100.3 100.3,-100.3 55.01,0 99.77,45.3 99.77,100.3l0 103.55c0,55.01 -44.76,100.3 -99.77,100.3 -50.52,0 -92.85,-38.21 -99.41,-87.06z"/>
    <g>
     <path class="fil1" d="M14283.13 13536.49c-1784.88,0 -3236.96,-1452.07 -3236.96,-3236.93 0,-18.15 14.72,-32.87 32.87,-32.87 18.15,0 32.87,14.72 32.87,32.87 0,1748.59 1422.61,3171.19 3171.22,3171.19 1748.58,0 3171.17,-1422.6 3171.17,-3171.19 0,-18.15 14.71,-32.87 32.88,-32.87 18.17,0 32.87,14.72 32.87,32.87 0,1784.86 -1452.07,3236.93 -3236.92,3236.93z"/>
    </g>
    <path class="fil2" d="M11155.6 6168.23c230.21,0 324.2,89.4 328.09,93.21 1.66,1.62 2.58,3.82 2.58,6.13l0 2992.93c0,0.45 -0.03,0.89 -0.1,1.32l0 0.03 -0.02 0.1c-0.08,0.47 -0.2,0.93 -0.36,1.39l-151.52 434.42c-0.06,0.21 -0.14,0.43 -0.22,0.64l-121.72 312.79c-1,2.6 -3.2,4.54 -5.9,5.22l-89.13 22.49c-0.7,0.18 -1.41,0.26 -2.11,0.26 -3.54,0 -6.81,-2.2 -8.06,-5.67l-121.18 -335.07 -0.06 -0.17 -159.8 -434.78c-0.21,-0.57 -0.35,-1.15 -0.44,-1.74l0 -0.01 0 0 -0.01 -0.07 -0.01 -0.08c-0.04,-0.35 -0.07,-0.71 -0.07,-1.07l0 -2992.93c0,-2.3 0.93,-4.5 2.57,-6.11 3.87,-3.81 97.25,-93.23 327.47,-93.23z"/>
   </g>
   <g>
    <path class="fil3" d="M3711.86 1937.2l-961.1 554.89c-301.57,1090.79 -1046.85,2175.38 -2442.78,3250.87 -215.26,240.57 -217.97,482.86 -76.68,726.33l4572.88 -2640.15 4572.87 -2640.15c-140.2,-244.1 -351.39,-362.9 -667.36,-296.76 -1629.36,671.17 -2941.28,774.31 -4036.72,490.07l-961.11 554.9z"/>
    <polygon class="fil2" points="3189.58,2238.74 4234.15,1635.66 12829.32,16522.93 11784.75,17126.01 11614.46,16831.07 11910.16,16660.35 11895.17,16634.39 11599.48,16805.11 11459.2,16562.14 11754.89,16391.42 11739.91,16365.47 11444.22,16536.19 11303.94,16293.22 11599.63,16122.5 11584.64,16096.54 11288.95,16267.26 11148.67,16024.29 11444.37,15853.58 11429.38,15827.62 11133.69,15998.34 10993.41,15755.37 11289.1,15584.65 11274.12,15558.7 10978.43,15729.41 10838.15,15486.45 11133.84,15315.73 11118.85,15289.77 10823.16,15460.49 10682.88,15217.52 10978.58,15046.8 10963.59,15020.85 10667.9,15191.57 10527.62,14948.6 10823.31,14777.88 10808.33,14751.92 10512.64,14922.64 10372.36,14679.67 10668.05,14508.96 10653.06,14483 10357.37,14653.72 10217.09,14410.75 10512.79,14240.03 10497.8,14214.08 10202.11,14384.79 10061.83,14141.83 10357.52,13971.11 10342.54,13945.15 10046.85,14115.87 9906.57,13872.9 10202.26,13702.18 10187.27,13676.23 9891.58,13846.95 9751.3,13603.98 10047,13433.26 10032.01,13407.3 9736.32,13578.02 9596.04,13335.05 9891.73,13164.34 9876.75,13138.38 9581.06,13309.1 9440.78,13066.13 9736.47,12895.41 9721.48,12869.46 9425.79,13040.17 9285.51,12797.21 9581.21,12626.49 9566.22,12600.53 9270.53,12771.25 9130.25,12528.28 9425.94,12357.56 9410.96,12331.61 9115.26,12502.33 8974.99,12259.36 9270.68,12088.64 9255.69,12062.68 8960,12233.4 8819.72,11990.43 9115.42,11819.72 9100.43,11793.76 8804.74,11964.48 8664.46,11721.51 8960.15,11550.79 8945.17,11524.84 8649.47,11695.55 8509.2,11452.59 8804.89,11281.87 8789.9,11255.91 8494.21,11426.63 8353.93,11183.66 8649.63,11012.94 8634.64,10986.99 8338.95,11157.71 8198.67,10914.74 8494.36,10744.02 8479.38,10718.06 8183.68,10888.78 8043.41,10645.81 8339.1,10475.1 8324.11,10449.14 8028.42,10619.86 7888.14,10376.89 8183.84,10206.17 8168.85,10180.22 7873.16,10350.93 7732.88,10107.97 8028.57,9937.25 8013.59,9911.29 7717.89,10082.01 7577.62,9839.04 7873.31,9668.32 7858.32,9642.37 7562.63,9813.09 7422.35,9570.12 7718.05,9399.4 7703.06,9373.44 7407.37,9544.16 7267.09,9301.19 7562.78,9130.48 7547.8,9104.52 7252.1,9275.24 7111.83,9032.27 7407.52,8861.55 7392.53,8835.6 7096.84,9006.31 6956.56,8763.35 7252.26,8592.63 7237.27,8566.67 6941.58,8737.39 6816.29,8520.38 7111.98,8349.66 7096.99,8323.7 6801.3,8494.42 6661.02,8251.45 6956.71,8080.73 6941.73,8054.78 6646.04,8225.5 6505.76,7982.53 6801.45,7811.81 6786.47,7785.86 6490.77,7956.57 6350.5,7713.6 6646.19,7542.89 6631.2,7516.93 6335.51,7687.65 6195.23,7444.68 6490.92,7273.96 6475.94,7248.01 6180.25,7418.73 6039.97,7175.76 6335.66,7005.04 6320.68,6979.08 6024.98,7149.8 5884.71,6906.83 6180.4,6736.11 6165.41,6710.16 5869.72,6880.88 5729.44,6637.91 6025.13,6467.19 6010.15,6441.24 5714.46,6611.95 5574.18,6368.98 5869.87,6198.27 5854.89,6172.31 5559.19,6343.03 5418.92,6100.06 5714.61,5929.34 5699.62,5903.39 5403.93,6074.11 5263.65,5831.14 5559.34,5660.42 5544.36,5634.46 5248.67,5805.18 5108.39,5562.21 5404.08,5391.49 5389.1,5365.54 5093.4,5536.26 4953.13,5293.29 5248.82,5122.57 5233.83,5096.62 4938.14,5267.33 4797.86,5024.36 5093.55,4853.65 5078.57,4827.69 4782.88,4998.41 4642.6,4755.44 4938.29,4584.72 4923.31,4558.77 4627.61,4729.49 4487.34,4486.52 4783.03,4315.8 4768.04,4289.84 4472.35,4460.56 "/>
   </g>
  </g>
 </g>
</svg>
