<?xml version="1.0" encoding="UTF-8"?>
<!DOCTYPE svg PUBLIC "-//W3C//DTD SVG 1.1//EN" "http://www.w3.org/Graphics/SVG/1.1/DTD/svg11.dtd">
<!-- Creator: CorelDRAW -->
<svg xmlns="http://www.w3.org/2000/svg" xml:space="preserve" width="180mm" height="180mm" version="1.1" style="shape-rendering:geometricPrecision; text-rendering:geometricPrecision; image-rendering:optimizeQuality; fill-rule:evenodd; clip-rule:evenodd"
viewBox="0 0 18000 18000"
 xmlns:xlink="http://www.w3.org/1999/xlink"
 xmlns:xodm="http://www.corel.com/coreldraw/odm/2003">
 <defs>
  <style type="text/css">
   <![CDATA[
    .fil12 {fill:#FEFEFE;fill-rule:nonzero}
    .fil4 {fill:#EBECEC;fill-rule:nonzero}
    .fil9 {fill:#EBECEC;fill-rule:nonzero}
    .fil6 {fill:#D9DADA;fill-rule:nonzero}
    .fil10 {fill:#D9DADA;fill-rule:nonzero}
    .fil16 {fill:#C5C6C6;fill-rule:nonzero}
    .fil13 {fill:#B2B3B3;fill-rule:nonzero}
    .fil14 {fill:#9D9E9E;fill-rule:nonzero}
    .fil5 {fill:#FAFBFB;fill-rule:nonzero}
    .fil1 {fill:#F2F7F9;fill-rule:nonzero}
    .fil15 {fill:#EEEDEE;fill-rule:nonzero}
    .fil11 {fill:#7FA6B4;fill-rule:nonzero}
    .fil8 {fill:#61BED7;fill-rule:nonzero}
    .fil7 {fill:#39ADCC;fill-rule:nonzero}
    .fil2 {fill:#565759;fill-rule:nonzero}
    .fil0 {fill:#717275;fill-rule:nonzero}
    .fil3 {fill:#949599;fill-rule:nonzero}
   ]]>
  </style>
 </defs>
 <g id="Katman_x0020_1">
  <metadata id="CorelCorpID_0Corel-Layer"/>
  <g id="_2100997090592">
   <path class="fil0" d="M1640.91 10027.54c-657.56,33.29 -1283.26,-785.22 -1366.25,-1830.83 -83.15,-1047.17 415.5,-1846.02 1082.28,-1786 112.58,10.32 222.24,45.77 327.2,100.1 486.4,252.28 871.3,943.74 932.65,1733.05 61.4,788.48 -216.39,1464.59 -664.02,1696.77 -96.41,50.08 -200.6,81.06 -311.86,86.91zm12513.57 -513.67l-12178.14 728.13 -4.86 -63.34c32.36,-14.96 63.89,-31.75 94.48,-50.8 469.44,-290.81 754.79,-1028.11 688.59,-1881.3 -70.51,-908.68 -522.23,-1705.16 -1089.29,-1975.11 -98.73,-46.98 -201.21,-78.35 -306,-91.38l-20.65 -4.3 -26.89 -0.56 -17.51 -0.22c-733.98,-35.61 -1279.56,851.81 -1186.85,2018.4 94.69,1188.24 807.41,2112.1 1551.88,2067.71 0,0 2808.81,365.19 3355.22,1377.13 1006.24,-51.02 10051.63,-1317.94 10051.63,-1317.94 0,0 -193.03,-558.67 -911.61,-806.42z"/>
   <polygon class="fil1" points="1285.65,6172.89 1294.21,6174.99 1311.72,6175.21 "/>
   <path class="fil2" d="M1624.18 9814.63c-578.55,24.35 -1126.28,-697.54 -1199.11,-1614.78 -72.67,-918.45 362.87,-1623.17 948.6,-1575.29 113.19,9.38 223.45,47.15 327.65,106.95 412.56,235.88 735.91,830.99 788.69,1509.81 52.79,678.27 -178.23,1260.46 -554.58,1479.61 -95.03,55.49 -199.05,88.84 -311.25,93.7zm992.61 -1570.77c-61.35,-789.31 -446.25,-1480.77 -932.65,-1733.05 -104.96,-54.33 -214.62,-89.78 -327.2,-100.1 -666.78,-60.02 -1165.43,738.83 -1082.28,1786 82.99,1045.61 708.69,1864.12 1366.25,1830.83 111.26,-5.85 215.45,-36.83 311.86,-86.91 447.63,-232.18 725.42,-908.29 664.02,-1696.77z"/>
   <path class="fil3" d="M1840.4 9413.76c-75.81,43.79 -158.58,69.91 -247.58,73.22 -458.73,17.34 -891.57,-556.13 -948.6,-1281.88 -57.32,-725.81 286.73,-1284.26 749.93,-1248.2 89.78,7.01 177.02,36.61 259.85,83.76 327.59,185.8 585.5,657.78 627.57,1197.57 42.46,539.56 -141.79,1002.54 -441.17,1175.53zm649.61 -1172.44c-52.78,-678.82 -376.13,-1273.93 -788.69,-1509.81 -104.2,-59.8 -214.46,-97.57 -327.65,-106.95 -585.73,-47.88 -1021.27,656.84 -948.6,1575.29 72.83,917.24 620.56,1639.13 1199.11,1614.78 112.2,-4.86 216.22,-38.21 311.25,-93.7 376.35,-219.15 607.37,-801.34 554.58,-1479.61z"/>
   <path class="fil4" d="M2281.57 8238.23c-42.07,-539.79 -299.98,-1011.77 -627.57,-1197.57 -82.83,-47.15 -170.07,-76.75 -259.85,-83.76 -463.2,-36.06 -807.25,522.39 -749.93,1248.2 57.03,725.75 489.87,1299.22 948.6,1281.88 89,-3.31 171.77,-29.43 247.58,-73.22 299.38,-172.99 483.63,-635.97 441.17,-1175.53z"/>
   <path class="fil1" d="M14459.11 8482.28c-34.84,-500.03 -181.55,-925.25 -345.38,-1022.26l-0.93 -15.57 -57.1 -5.63 -12696.44 -1258.75c104.79,13.03 207.27,44.4 306,91.38 567.06,269.95 1018.78,1066.27 1089.29,1975.11 66.2,853.19 -219.15,1590.49 -688.59,1881.3 -30.59,19.05 -62.34,35.84 -94.48,50.8l4.86 63.34 12178.14 -728.13 45.56 -2.71 56.32 -3.31 -1 -15.63c150.57,-90.33 238.64,-510.3 203.75,-1009.94z"/>
   <path class="fil2" d="M10371.68 9847.92l1078.19 -2194.26 3354.22 1428.54 -4432.41 765.72zm588.87 -3682.04l-2247.27 4846.7 8490.42 -1504.34 361.33 -64.11 108.66 -19.27 229.09 -39.92 -6942.23 -3219.06z"/>
   <path class="fil5" d="M10885.73 6520.75c-13.25,28.44 -5.46,60.02 17.34,70.73 22.8,10.71 52.23,-3.92 65.27,-32.35l148.63 -320.42 -82.6 -38.37 -148.64 320.41z"/>
   <path class="fil5" d="M11216.31 6674.08c-13.25,28.44 -5.47,59.97 17.5,70.68 23.03,10.71 52.01,-3.86 65.1,-32.36l148.81 -320.41 -82.83 -38.38 -148.58 320.47z"/>
   <path class="fil5" d="M11547.05 6827.36c-13.25,28.44 -5.47,60.19 17.5,70.68 22.8,10.71 51.85,-3.87 65.27,-32.3l148.41 -320.42 -82.76 -38.37 -148.42 320.41z"/>
   <path class="fil5" d="M11877.62 6980.64c-13.08,28.66 -5.3,60.19 17.51,70.73 22.8,10.71 51.79,-3.92 65.26,-32.35l148.64 -320.42 -82.82 -38.15 -148.59 320.19z"/>
   <path class="fil5" d="M12208.14 7133.97c-13.03,28.61 -5.24,60.19 17.56,70.68 22.75,10.55 52.01,-3.87 65.26,-32.3l148.59 -320.47 -82.77 -38.16 -148.64 320.25z"/>
   <path class="fil5" d="M12538.88 7287.25c-13.19,28.66 -5.41,60.19 17.34,70.9 23.02,10.32 52.01,-4.09 65.26,-32.36l148.64 -320.58 -82.6 -38.37 -148.64 320.41z"/>
   <path class="fil5" d="M12869.46 7440.53c-13.26,28.66 -5.47,60.19 17.55,70.9 22.75,10.32 51.96,-4.09 65.21,-32.3l148.48 -320.64 -82.6 -38.37 -148.64 320.41z"/>
   <path class="fil5" d="M13200.2 7594.03c-13.26,28.44 -5.47,60.02 17.33,70.51 22.97,10.71 52.24,-3.87 65.27,-32.3l148.64 -320.47 -82.6 -38.38 -148.64 320.64z"/>
   <path class="fil5" d="M13530.77 7747.36c-13.25,28.44 -5.47,59.97 17.5,70.51 22.81,10.71 52.02,-3.92 65.1,-32.35l148.59 -320.42 -82.55 -38.37 -148.64 320.63z"/>
   <path class="fil5" d="M13861.51 7900.64c-13.25,28.22 -5.47,59.96 17.34,70.51 22.97,10.71 52.01,-3.7 65.04,-32.36l148.81 -320.41 -82.77 -38.38 -148.42 320.64z"/>
   <path class="fil5" d="M14192.09 8053.92c-13.26,28.27 -5.31,60.02 17.5,70.51 22.8,10.71 51.85,-3.7 65.26,-32.3l148.42 -320.25 -82.6 -38.54 -148.58 320.58z"/>
   <path class="fil5" d="M14522.6 8207.25c-13.03,28.22 -5.24,60.19 17.56,70.51 22.81,10.71 52.02,-3.7 65.27,-32.35l148.58 -320.25 -82.77 -38.54 -148.64 320.63z"/>
   <path class="fil5" d="M14853.18 8360.53c-13.03,28.44 -5.25,60.18 17.5,70.51 22.81,10.71 52.02,-3.7 65.27,-32.36l148.64 -320.19 -82.61 -38.38 -148.8 320.42z"/>
   <path class="fil5" d="M15183.92 8513.81c-13.25,28.43 -5.47,60.18 17.56,70.51 22.75,10.71 52.01,-3.7 65.04,-32.3l148.64 -320.42 -82.6 -38.21 -148.64 320.42z"/>
   <path class="fil5" d="M15514.66 8667.14c-13.25,28.44 -5.47,59.96 17.34,70.68 22.8,10.54 52.01,-3.87 65.26,-32.3l148.42 -320.64 -82.38 -38.15 -148.64 320.41z"/>
   <path class="fil5" d="M15845.23 8820.42c-13.25,28.43 -5.46,60.02 17.34,70.73 22.81,10.49 52.18,-3.92 65.27,-32.36l148.8 -320.63 -82.77 -38.16 -148.64 320.42z"/>
   <path class="fil5" d="M16175.81 8973.7c-13.25,28.49 -5.47,60.02 17.34,70.73 22.97,10.54 52.18,-3.92 65.21,-32.36l148.86 -320.58 -82.83 -38.21 -148.58 320.42z"/>
   <path class="fil5" d="M16506.55 9127.03c-13.25,28.44 -5.47,59.96 17.5,70.68 22.81,10.71 51.85,-3.87 65.27,-32.31l148.42 -320.63 -82.77 -38.16 -148.42 320.42z"/>
   <path class="fil5" d="M16837.07 9280.31c-13.03,28.43 -5.25,60.02 17.56,70.73 22.8,10.71 51.79,-3.92 65.26,-32.36l148.42 -320.63 -82.6 -38.16 -148.64 320.42z"/>
   <path class="fil5" d="M17167.64 9433.64c-13.03,28.44 -5.24,59.97 17.51,70.68 22.8,10.71 52.01,-3.7 65.26,-32.3l148.64 -320.47 -82.77 -38.38 -148.64 320.47z"/>
   <polygon class="fil5" points="17565.03,9444.13 17673.69,9424.86 17729.63,9304.66 17647.41,9266.5 "/>
   <path class="fil4" d="M3444.08 11445.58l70.29 255.15c27.11,97.62 130.53,154.27 231.24,126.44l256.53 -70.73 -119.21 -432 -438.85 121.14z"/>
   <path class="fil6" d="M3520.99 11013.74c-100.65,27.83 -160.45,129.54 -133.4,227.1l56.49 204.74 438.85 -121.14 -105.41 -381.43 -256.53 70.73z"/>
   <polygon class="fil7" points="12034.99,9538.99 12071.21,9528.89 12068.12,9516.96 "/>
   <polygon class="fil8" points="11810.2,8725.56 11849.96,8727.71 11846.81,8715.45 "/>
   <polygon class="fil9" points="4889.23,11046.65 4251.11,11222.73 4370.32,11654.79 4826.29,11528.96 12034.99,9538.99 11915.61,9106.93 "/>
   <polygon class="fil10" points="4601.72,10715.52 4145.92,10841.36 4251.11,11222.73 4889.23,11046.65 11915.61,9106.93 11810.2,8725.56 "/>
   <polygon class="fil11" points="3855.49,10921.59 3777.52,10943.01 3882.93,11324.44 3960.84,11303.01 4251.11,11222.73 4145.92,10841.36 "/>
   <polygon class="fil12" points="3960.84,11303.01 3882.93,11324.44 4002.14,11756.44 4080.27,11734.85 4370.32,11654.79 4251.11,11222.73 "/>
   <polygon class="fil10" points="12353.85,8986.01 12432.92,9271.92 13142.77,8795.3 13059.95,8791.21 "/>
   <polygon class="fil9" points="12353.85,8986.01 13059.95,8791.21 12288.98,8750.68 "/>
   <polygon class="fil13" points="11952,9097.05 11915.61,9106.93 12034.99,9538.99 12068.12,9516.96 12432.92,9271.92 12353.85,8986.01 "/>
   <polygon class="fil14" points="11849.96,8727.71 11810.2,8725.56 11915.61,9106.93 11952,9097.05 12353.85,8986.01 12288.98,8750.68 "/>
   <path class="fil15" d="M3451.7 10972.44l27.22 221.08c10.55,84.76 112.58,141.8 228.31,127.38l294.52 -36.22 -45.99 -374.19 -504.06 61.95z"/>
   <path class="fil16" d="M3620.16 10616.19c-115.29,14.02 -200.65,94.47 -190.11,178.79l21.65 177.46 504.06 -61.95 -40.69 -330.52 -294.91 36.22z"/>
   <polygon class="fil7" points="13227.09,10148.68 13268.99,10143.44 13267.61,10133.11 "/>
   <polygon class="fil8" points="13140.23,9443.97 13183.25,9449.21 13181.92,9438.67 "/>
   <polygon class="fil10" points="5111.47,10767.92 4378.65,10858.31 4424.65,11232.67 4948.2,11168.18 13227.09,10148.68 13180.93,9774.49 "/>
   <polygon class="fil16" points="4861.35,10463.24 4337.96,10527.73 4378.65,10858.31 5111.47,10767.92 13180.93,9774.49 13140.23,9443.97 "/>
   <polygon class="fil6" points="4004.46,10568.82 3915.07,10579.97 3955.76,10910.49 4045.21,10899.39 4378.65,10858.31 4337.96,10527.73 "/>
   <polygon class="fil12" points="4045.21,10899.39 3955.76,10910.49 4001.75,11284.68 4091.37,11273.58 4424.65,11232.67 4378.65,10858.31 "/>
   <polygon class="fil10" points="13684.27,9712.37 13714.86,9960.12 14584.78,9623.53 14495.33,9612.65 "/>
   <polygon class="fil9" points="13684.27,9712.37 14495.33,9612.65 13659.31,9508.62 "/>
   <polygon class="fil13" points="13222.61,9769.24 13180.93,9774.49 13227.09,10148.68 13267.61,10133.11 13714.86,9960.12 13684.27,9712.37 "/>
   <polygon class="fil14" points="13183.25,9449.21 13140.23,9443.97 13180.93,9774.49 13222.61,9769.24 13684.27,9712.37 13659.31,9508.62 "/>
  </g>
 </g>
</svg>
