<?xml version="1.0" encoding="UTF-8"?>
<!DOCTYPE svg PUBLIC "-//W3C//DTD SVG 1.1//EN" "http://www.w3.org/Graphics/SVG/1.1/DTD/svg11.dtd">
<!-- Creator: CorelDRAW -->
<svg xmlns="http://www.w3.org/2000/svg" xml:space="preserve" width="180mm" height="180mm" version="1.1" style="shape-rendering:geometricPrecision; text-rendering:geometricPrecision; image-rendering:optimizeQuality; fill-rule:evenodd; clip-rule:evenodd"
viewBox="0 0 18000 18000"
 xmlns:xlink="http://www.w3.org/1999/xlink"
 xmlns:xodm="http://www.corel.com/coreldraw/odm/2003">
 <defs>
  <style type="text/css">
   <![CDATA[
    .fil0 {fill:url(#id0)}
   ]]>
  </style>
  <linearGradient id="id0" gradientUnits="userSpaceOnUse" x1="-4866.15" y1="24206.73" x2="22865.46" y2="-12837.61">
   <stop offset="0" style="stop-opacity:1; stop-color:#ED0E0C"/>
   <stop offset="0.215686" style="stop-opacity:1; stop-color:#EB1110"/>
   <stop offset="0.639216" style="stop-opacity:1; stop-color:#E81515"/>
   <stop offset="1" style="stop-opacity:1; stop-color:#690D0D"/>
  </linearGradient>
 </defs>
 <g id="Katman_x0020_1">
  <metadata id="CorelCorpID_0Corel-Layer"/>
  <path class="fil0" d="M3550.67 750.44l-538.26 0c-296.03,0 -538.25,242.21 -538.25,538.25l0 11803.99c0,296.04 242.22,538.25 538.25,538.25l538.26 0 0 -12880.49zm375.57 15441.84l938.72 0 -163.44 1057.42 -555.8 0 -219.48 -1057.42zm469.36 -14650.31c-258.15,0 -469.36,211.21 -469.36,469.36l0 13537.9 938.72 0 0 -13537.9c0,-258.15 -211.21,-469.36 -469.36,-469.36zm2876.33 0c-258.15,0 -469.36,211.21 -469.36,469.36l0 10358.71c0,258.15 211.21,469.36 469.36,469.36 258.14,0 469.36,-211.21 469.36,-469.36l0 -10358.71c0,-258.15 -211.22,-469.36 -469.36,-469.36zm-1435.81 0c-258.15,0 -469.36,211.21 -469.36,469.36l0 10358.71c0,258.15 211.21,469.36 469.36,469.36 258.15,0 469.36,-211.21 469.36,-469.36l0 -10358.71c0,-258.15 -211.21,-469.36 -469.36,-469.36zm4319.23 0c-258.15,0 -469.36,211.21 -469.36,469.36l0 10358.71c0,258.15 211.21,469.36 469.36,469.36 258.15,0 469.36,-211.21 469.36,-469.36l0 -10358.71c0,-258.15 -211.21,-469.36 -469.36,-469.36zm848.63 -791.53l538.25 0c296.04,0 538.26,242.21 538.26,538.25l0 5650.72 359.53 0c123.69,-734.35 762.43,-1293.82 1531.96,-1293.82 858.09,0 1553.72,695.63 1553.72,1553.72 0,858.1 -695.63,1553.72 -1553.72,1553.72 -747.7,0 -1371.96,-528.17 -1520.23,-1231.75l-371.26 0 0 5571.4c0,296.04 -242.22,538.25 -538.26,538.25l-538.25 0 0 -12880.49zm1871.58 6188.97l2192.83 0c-117.34,-496.9 -563.67,-866.7 -1096.41,-866.7 -532.75,0 -979.07,369.8 -1096.42,866.7zm2176.25 581.87l-2159.67 0c138.54,465.31 569.53,804.64 1079.84,804.64 510.31,0 941.3,-339.33 1079.83,-804.64zm-6332.27 -5979.31c-258.15,0 -469.36,211.21 -469.36,469.36l0 10358.71c0,258.15 211.21,469.36 469.36,469.36 258.15,0 469.36,-211.21 469.36,-469.36l0 -10358.71c0,-258.15 -211.21,-469.36 -469.36,-469.36z"/>
 </g>
</svg>
