<?xml version="1.0" encoding="UTF-8"?>
<!DOCTYPE svg PUBLIC "-//W3C//DTD SVG 1.1//EN" "http://www.w3.org/Graphics/SVG/1.1/DTD/svg11.dtd">
<!-- Creator: CorelDRAW -->
<svg xmlns="http://www.w3.org/2000/svg" xml:space="preserve" width="180mm" height="180mm" version="1.1" style="shape-rendering:geometricPrecision; text-rendering:geometricPrecision; image-rendering:optimizeQuality; fill-rule:evenodd; clip-rule:evenodd"
viewBox="0 0 18000 18000"
 xmlns:xlink="http://www.w3.org/1999/xlink"
 xmlns:xodm="http://www.corel.com/coreldraw/odm/2003">
 <defs>
  <style type="text/css">
   <![CDATA[
    .fil4 {fill:#2E2E2E}
    .fil0 {fill:#6C0100}
    .fil1 {fill:#B60E0E}
    .fil3 {fill:#ED0E0C}
    .fil2 {fill:#FF0400}
   ]]>
  </style>
 </defs>
 <g id="Katman_x0020_1">
  <metadata id="CorelCorpID_0Corel-Layer"/>
  <g id="_3037940081088">
   <path class="fil0" d="M8698.34 2951.54c1301.8,0 2476.52,476.2 3397.34,1270.03l1333.59 -1333.58c-1238.36,-1111.27 -2921.15,-1809.79 -4730.93,-1809.79 -1968.66,0 -3746.67,793.74 -5016.71,2063.78 -1270.03,1270.03 -2063.87,3048.14 -2063.87,5016.7 0,1968.54 793.84,3714.89 2063.87,5016.69 1270.04,1270.03 3048.05,2063.87 5016.71,2063.87 698.51,0 1397.02,-95.31 2063.77,-317.53l63.54 -31.78 31.78 0 31.67 0 31.78 0 31.77 0c984.27,-349.29 1841.56,-920.82 2571.85,-1651.02 1270.03,-1270.12 2063.77,-3048.14 2063.77,-5016.69 0,-1809.88 -698.52,-3460.9 -1809.79,-4730.94l-1143.04 1270.04c793.83,920.74 1270.04,2095.54 1270.04,3397.36 0,1428.8 -571.53,2730.61 -1524.03,3683.11 -952.51,952.6 -2254.31,1524.12 -3683.11,1524.12 -1428.82,0 -2730.62,-571.52 -3683.22,-1524.12 -952.5,-952.5 -1524.02,-2254.31 -1524.02,-3683.11 0,-1428.8 571.52,-2730.62 1524.02,-3683.12 920.84,-952.51 2222.64,-1524.02 3683.22,-1524.02zm-6096.29 5207.14c0,63.54 -63.45,127 -127,127 -63.45,0 -127,-63.46 -127,-127 0,-1746.34 698.53,-3333.91 1873.33,-4476.95 1143.05,-1143.05 2730.62,-1873.24 4508.63,-1873.24 63.55,0 127.09,63.45 127.09,127 0,63.45 -63.54,126.99 -127.09,126.99 -1682.78,0 -3206.82,666.75 -4318.09,1778.02 -1143.03,1111.35 -1809.87,2635.38 -1809.87,4318.18z"/>
   <path class="fil1" d="M8698.34 4793.09c793.73,0 1524.02,285.76 2095.54,730.29l1143.04 -1143.04c-857.28,-730.29 -2000.33,-1174.82 -3206.91,-1174.82 -1365.25,0 -2603.52,539.75 -3492.58,1460.58 -889.05,888.96 -1460.58,2127.31 -1460.58,3492.58 0,1365.35 539.76,2603.62 1460.58,3492.67 889.06,888.96 2127.33,1460.48 3492.58,1460.48 1365.35,0 2603.62,-539.75 3492.67,-1460.48 889.06,-889.05 1460.58,-2127.32 1460.58,-3492.67 0,-1238.27 -444.53,-2349.54 -1174.82,-3206.83l-1143.03 1143.05c444.52,571.53 730.27,1301.72 730.27,2095.55 0,920.73 -380.98,1778.01 -984.27,2381.3 -603.29,603.29 -1460.57,984.29 -2381.4,984.29 -920.73,0 -1778.01,-381 -2381.31,-984.29 -603.29,-603.29 -984.27,-1460.57 -984.27,-2381.3 0,-920.83 380.98,-1778.11 984.27,-2381.31 571.53,-635.06 1397.04,-1016.05 2349.64,-1016.05z"/>
   <path class="fil2" d="M9301.53 6983.86c-190.44,-95.22 -380.98,-158.76 -603.19,-158.76 -349.31,0 -698.53,158.76 -920.84,381.07l0 0c-253.98,253.99 -380.98,571.53 -380.98,952.51 0,380.98 158.77,698.51 380.98,952.5 254,254.08 571.53,381.08 952.51,381.08 381.08,0 698.6,-158.77 920.83,-381.08 253.99,-253.99 380.98,-571.52 380.98,-952.5 0,-222.22 -63.45,-444.53 -158.76,-603.29l-888.97 889.05c-63.54,63.53 -190.53,126.99 -285.75,126.99 -95.32,0 -190.55,-31.77 -285.77,-126.99 -63.54,-63.45 -126.99,-190.54 -126.99,-285.76 0,-95.23 31.68,-190.55 126.99,-285.76l888.96 -889.06z"/>
   <path class="fil3" d="M8698.34 6571.1c285.75,0 571.51,95.33 825.51,222.31l1079.49 -1079.58c-539.75,-412.76 -1174.73,-634.98 -1905,-634.98 -857.29,0 -1619.35,349.21 -2190.87,920.74 -571.51,571.51 -920.82,1333.58 -920.82,2190.86 0,857.28 349.31,1619.34 920.82,2190.86 571.52,571.52 1333.58,920.73 2190.87,920.73 857.27,0 1619.25,-349.21 2190.76,-920.73 571.52,-571.52 920.83,-1333.58 920.83,-2190.86 0,-698.52 -253.99,-1365.35 -635.07,-1905.1l-1079.5 1079.59c158.77,222.21 222.23,507.98 222.23,825.51 0,444.52 -190.45,825.5 -476.22,1111.27 -285.76,285.76 -698.51,476.29 -1111.36,476.29 -444.43,0 -825.51,-190.53 -1111.27,-476.29 -285.76,-285.77 -476.2,-698.51 -476.2,-1111.27 0,-412.75 190.44,-825.51 476.2,-1111.28l0 0c222.31,-317.53 635.07,-508.07 1079.6,-508.07z"/>
   <path class="fil4" d="M5523.19 14858.16l-1651.11 2698.84 1079.59 -253.98 1333.58 -2127.33c-127.08,-31.76 -254.08,-95.21 -381.07,-126.99 -127,-95.22 -253.99,-158.77 -380.99,-190.54z"/>
   <polygon class="fil4" points="15493.04,1141.65 15556.59,443.14 15016.75,1014.66 14953.3,1713.18 "/>
   <path class="fil4" d="M7555.29 16604.49c-63.55,0 -127,-63.53 -127,-126.98 0,-63.55 63.45,-127 127,-127l4191.1 0 -730.29 -1206.58c254.08,-95.23 539.84,-190.45 762.05,-317.53l1651.12 2698.93 -1111.36 -254.08 -412.76 -666.76 -4349.86 0z"/>
   <path class="fil4" d="M8761.79 8253.9c-63.45,63.54 -127,63.54 -190.45,0 -63.55,-63.45 -63.55,-127 0,-190.45l6096.19 -6096.28c63.46,-63.45 127,-63.45 190.54,0 63.45,63.53 63.45,127.08 0,190.53l-6096.28 6096.2z"/>
   <polygon class="fil4" points="15683.59,1300.42 15143.83,1871.94 15143.83,1871.94 15842.35,1808.49 16382.1,1205.2 "/>
  </g>
 </g>
</svg>
